<svg width="15" height="17" viewBox="0 0 15 17" fill="none" xmlns="http://www.w3.org/2000/svg">
<path d="M14.0525 11.9735C13.9932 11.9021 13.935 11.8307 13.8779 11.7618C13.0922 10.8114 12.6168 10.2378 12.6168 7.54747C12.6168 6.15462 12.2836 5.01176 11.6268 4.15461C11.1425 3.5214 10.4879 3.04104 9.62503 2.68604C9.61393 2.67987 9.60401 2.67176 9.59575 2.66211C9.28539 1.62283 8.4361 0.926758 7.47825 0.926758C6.52039 0.926758 5.67146 1.62283 5.3611 2.66104C5.35282 2.67034 5.34304 2.67818 5.33218 2.68426C3.31861 3.51319 2.34003 5.10354 2.34003 7.5464C2.34003 10.2378 1.86539 10.8114 1.07896 11.7607C1.02182 11.8296 0.963607 11.8996 0.904321 11.9725C0.751179 12.1572 0.65415 12.3819 0.624719 12.62C0.595288 12.8581 0.634686 13.0996 0.73825 13.316C0.958607 13.7803 1.42825 14.0685 1.96432 14.0685H12.9961C13.5297 14.0685 13.9961 13.7807 14.2172 13.3185C14.3212 13.1021 14.361 12.8603 14.3318 12.6219C14.3026 12.3836 14.2057 12.1585 14.0525 11.9735ZM7.47825 16.9268C7.99433 16.9263 8.50068 16.7863 8.94359 16.5213C9.3865 16.2564 9.74945 15.8766 9.99396 15.4221C10.0055 15.4003 10.0112 15.3759 10.0105 15.3513C10.0098 15.3267 10.0027 15.3027 9.99001 15.2816C9.97728 15.2605 9.95932 15.243 9.93786 15.2309C9.9164 15.2188 9.89217 15.2124 9.86753 15.2125H5.08968C5.06501 15.2124 5.04073 15.2187 5.01922 15.2308C4.99771 15.2428 4.9797 15.2603 4.96693 15.2814C4.95417 15.3025 4.94708 15.3266 4.94638 15.3512C4.94567 15.3759 4.95136 15.4003 4.96289 15.4221C5.20737 15.8766 5.57027 16.2564 6.01311 16.5213C6.45595 16.7862 6.96222 16.9263 7.47825 16.9268Z" fill="#0D0A19"/>
</svg>
