<svg width="21" height="16" viewBox="0 0 21 16" fill="none" xmlns="http://www.w3.org/2000/svg">
<path d="M18.166 0H2.83268C1.76893 0 0.925599 0.89 0.925599 2L0.916016 14C0.916016 15.11 1.76893 16 2.83268 16H18.166C19.2298 16 20.0827 15.11 20.0827 14V2C20.0827 0.89 19.2298 0 18.166 0ZM17.2077 14H3.79102C3.26393 14 2.83268 13.55 2.83268 13V8H18.166V13C18.166 13.55 17.7348 14 17.2077 14ZM18.166 4H2.83268V3C2.83268 2.45 3.26393 2 3.79102 2H17.2077C17.7348 2 18.166 2.45 18.166 3V4Z" fill="#99B2C6"/>
</svg>
