<svg width="23" height="24" viewBox="0 0 23 24" fill="none" xmlns="http://www.w3.org/2000/svg">
<path d="M1.36414 18C2.1913 19.4356 4.02566 19.9288 5.46125 19.1017C5.46224 19.1011 5.46318 19.1005 5.46416 19.1L5.90914 18.843C6.74914 19.5616 7.71468 20.119 8.75713 20.487V21C8.75713 22.6568 10.1003 24 11.7571 24C13.414 24 14.7571 22.6568 14.7571 21V20.487C15.7997 20.1184 16.7653 19.5604 17.6051 18.841L18.0521 19.099C19.488 19.9274 21.3237 19.4349 22.1521 17.999C22.9806 16.563 22.4881 14.7274 21.0521 13.899L20.6081 13.643C20.808 12.5554 20.808 11.4405 20.6081 10.353L21.0521 10.097C22.488 9.26855 22.9806 7.43292 22.1521 5.99695C21.3237 4.56103 19.4881 4.06852 18.0521 4.89694L17.6071 5.15395C16.7663 4.43616 15.8001 3.87984 14.7571 3.513V3C14.7571 1.34316 13.414 0 11.7571 0C10.1003 0 8.75713 1.34316 8.75713 3V3.513C7.71454 3.88158 6.74896 4.43958 5.90914 5.15902L5.46214 4.90003C4.02618 4.07156 2.19055 4.56408 1.36213 6C0.533707 7.43592 1.02618 9.27159 2.46214 10.1L2.90614 10.356C2.70627 11.4435 2.70627 12.5584 2.90614 13.646L2.46214 13.902C1.03016 14.7326 0.539285 16.5647 1.36414 18ZM11.7571 8.00002C13.9663 8.00002 15.7571 9.79088 15.7571 12C15.7571 14.2091 13.9663 16 11.7571 16C9.548 16 7.75714 14.2091 7.75714 12C7.75714 9.79088 9.548 8.00002 11.7571 8.00002Z" fill="#07A4FC" fill-opacity="0.8"/>
</svg>
