<svg width="16" height="16" viewBox="0 0 16 16" fill="none" xmlns="http://www.w3.org/2000/svg">
<path fill-rule="evenodd" clip-rule="evenodd" d="M10.9021 8.48906C10.8931 8.51029 10.8838 8.53192 10.8744 8.55397C10.6303 9.12515 10.2768 9.751 9.76787 10.1832C9.4244 10.4749 8.9863 10.6981 8.56752 10.8679C8.9863 11.0376 9.4244 11.2608 9.76787 11.5525C10.2768 11.9847 10.6303 12.6106 10.8744 13.1818C10.8838 13.2038 10.8931 13.2255 10.9021 13.2467C10.9112 13.2255 10.9205 13.2038 10.9299 13.1818C11.174 12.6106 11.5275 11.9847 12.0364 11.5525C12.3799 11.2608 12.818 11.0376 13.2368 10.8679C12.818 10.6981 12.3799 10.4749 12.0364 10.1832C11.5275 9.751 11.174 9.12514 10.9299 8.55397C10.9205 8.53192 10.9112 8.51029 10.9021 8.48906ZM10.4945 6.75094C10.569 6.69376 10.7092 6.60957 10.9021 6.60957C11.0951 6.60957 11.2353 6.69376 11.3098 6.75094C11.3854 6.80897 11.4391 6.87378 11.4731 6.91917C11.5413 7.01028 11.6003 7.11936 11.6499 7.21886C11.75 7.41956 11.874 7.70964 12.0245 8.06173L12.0333 8.08232C12.2488 8.58645 12.5124 9.01311 12.8132 9.26854C13.0359 9.45766 13.375 9.63513 13.7736 9.7899L13.7964 9.79872C14.1283 9.92761 14.4066 10.0356 14.6003 10.126C14.6965 10.1708 14.807 10.227 14.901 10.2965C14.9484 10.3315 15.0156 10.3871 15.0751 10.467C15.1362 10.5492 15.2103 10.6863 15.2103 10.8679C15.2103 11.0494 15.1362 11.1865 15.0751 11.2687C15.0156 11.3486 14.9484 11.4043 14.901 11.4393C14.807 11.5087 14.6965 11.565 14.6003 11.6098C14.4066 11.7001 14.1283 11.8081 13.7963 11.937L13.7736 11.9458C13.375 12.1006 13.0359 12.2781 12.8132 12.4672C12.5124 12.7226 12.2488 13.1493 12.0333 13.6534L12.0245 13.674C11.874 14.0261 11.75 14.3162 11.6499 14.5169C11.6003 14.6164 11.5413 14.7255 11.4731 14.8166C11.4391 14.862 11.3854 14.9268 11.3098 14.9848C11.2353 15.042 11.0951 15.1262 10.9021 15.1262C10.7092 15.1262 10.569 15.042 10.4945 14.9848C10.4189 14.9268 10.3652 14.862 10.3312 14.8166C10.263 14.7255 10.204 14.6164 10.1544 14.5169C10.0543 14.3162 9.93027 14.0261 9.77978 13.674L9.77097 13.6534C9.55549 13.1493 9.2919 12.7226 8.99111 12.4672C8.76841 12.2781 8.42929 12.1006 8.03067 11.9458L8.00798 11.937C7.67598 11.8081 7.39771 11.7001 7.20396 11.6098C7.10782 11.565 6.99726 11.5087 6.9033 11.4393C6.85592 11.4043 6.78872 11.3486 6.72925 11.2687C6.66805 11.1865 6.59403 11.0494 6.59403 10.8679C6.59403 10.6863 6.66805 10.5492 6.72925 10.467C6.78872 10.3871 6.85592 10.3315 6.9033 10.2965C6.99726 10.227 7.10782 10.1708 7.20396 10.126C7.39771 10.0356 7.67599 9.92759 8.008 9.7987L8.03067 9.7899C8.42929 9.63513 8.76841 9.45766 8.99111 9.26854C9.2919 9.01311 9.55549 8.58645 9.77097 8.08232L9.77978 8.06172C9.93027 7.70963 10.0543 7.41956 10.1544 7.21886C10.204 7.11936 10.263 7.01028 10.3312 6.91917C10.3652 6.87378 10.4189 6.80897 10.4945 6.75094Z" fill="#07A4FC"/>
<path fill-rule="evenodd" clip-rule="evenodd" d="M4.56407 0.71045L5.07152 0.71045C5.5007 0.710436 5.86568 0.710425 6.1685 0.740384C6.49107 0.772299 6.78998 0.841514 7.07626 1.00765C7.36254 1.17378 7.57094 1.39897 7.75869 1.66321C7.93494 1.91126 8.11601 2.22816 8.32893 2.60079L8.42611 2.77086C8.54431 2.97772 8.61208 3.09494 8.67042 3.17705C8.69657 3.21386 8.71297 3.23203 8.72167 3.24063C8.72575 3.24466 8.72873 3.24702 8.72873 3.24702L8.72971 3.24771L8.73079 3.24822C8.73079 3.24822 8.73432 3.24964 8.73985 3.25118C8.75163 3.25447 8.77554 3.25969 8.82047 3.26413C8.92071 3.27405 9.05611 3.27473 9.29435 3.27473L10.3932 3.27472C11.2237 3.27472 11.8934 3.27471 12.4302 3.3303C12.9844 3.38769 13.4644 3.50949 13.887 3.79853C14.1941 4.00859 14.4595 4.27395 14.6696 4.58107C14.9586 5.00367 15.0804 5.48368 15.1378 6.03792C15.1934 6.57473 15.1934 7.2444 15.1934 8.07485V8.10786C15.1934 8.43923 14.9247 8.70786 14.5934 8.70786C14.262 8.70786 13.9934 8.43923 13.9934 8.10786C13.9934 7.23666 13.9926 6.62927 13.9442 6.16153C13.8968 5.70414 13.8091 5.44859 13.6791 5.25853C13.553 5.07426 13.3938 4.91505 13.2096 4.78901C13.0195 4.65901 12.7639 4.57128 12.3066 4.52391C11.8388 4.47548 11.2314 4.47473 10.3602 4.47473L9.27073 4.47473C9.06458 4.47475 8.86882 4.47477 8.70232 4.4583C8.51629 4.4399 8.32057 4.3977 8.1274 4.2856C7.93423 4.1735 7.80049 4.0245 7.69221 3.87211C7.5953 3.73572 7.49819 3.56574 7.39593 3.38673L7.30094 3.22049C7.07035 2.81696 6.91829 2.55223 6.78048 2.35827C6.65034 2.17511 6.56012 2.09555 6.47395 2.04554C6.38777 1.99553 6.27394 1.95668 6.05035 1.93455C5.81357 1.91113 5.50827 1.91045 5.04351 1.91045H4.60567C3.83446 1.91045 3.31641 1.91173 2.92998 1.96368C2.56081 2.01331 2.40281 2.09909 2.29856 2.20334C2.19431 2.3076 2.10853 2.4656 2.05889 2.83476C2.00694 3.22119 2.00567 3.73924 2.00567 4.51045V10.1022C2.00567 11.0524 2.00655 11.715 2.06365 12.2225C2.1194 12.7179 2.22232 12.9909 2.37616 13.192C2.47274 13.3182 2.5856 13.4311 2.71181 13.5277C2.91287 13.6815 3.18591 13.7844 3.68136 13.8402C4.18885 13.8973 4.85138 13.8981 5.80156 13.8981H8.01154C8.34291 13.8981 8.61154 14.1668 8.61154 14.4981C8.61154 14.8295 8.34291 15.0981 8.01154 15.0981H5.76552C4.85987 15.0982 4.12965 15.0982 3.54719 15.0326C2.94498 14.9649 2.4271 14.8208 1.98258 14.4807C1.77223 14.3197 1.58412 14.1316 1.42316 13.9212C1.08301 13.4767 0.938932 12.9588 0.871177 12.3566C0.805645 11.7742 0.805654 11.044 0.805666 10.1383L0.805665 4.46885C0.805641 3.75007 0.805622 3.15069 0.869595 2.67487C0.937119 2.17263 1.08566 1.71919 1.45003 1.35482C1.81441 0.99044 2.26785 0.841904 2.77008 0.77438C3.24591 0.710407 3.84528 0.710427 4.56407 0.71045Z" fill="#07A4FC"/>
</svg>
