<svg width="16" height="16" viewBox="0 0 16 16" fill="none" xmlns="http://www.w3.org/2000/svg">
<g clip-path="url(#clip0_39_1209)">
<path d="M15.619 7.61914V13.7144C15.619 14.9715 14.5903 16.0001 13.3333 16.0001H2.66658C1.40952 16.0001 0.380859 14.9715 0.380859 13.7144V7.61914H15.619Z" fill="#B73333"/>
<path d="M15.619 4.57144V6.09525H0.380859V4.57144C0.380859 3.31437 1.40952 2.28572 2.66658 2.28572H4.19039V0.761906C4.19039 0.343 4.5332 0 4.9523 0C5.37139 0 5.7142 0.343 5.7142 0.761906V2.28572H10.2856V0.761906C10.2856 0.343 10.6285 0 11.0475 0C11.4666 0 11.8095 0.343 11.8095 0.761906V2.28572H13.3333C14.5903 2.28572 15.619 3.31434 15.619 4.57144Z" fill="#B73333"/>
</g>
<defs>
<clipPath id="clip0_39_1209">
<rect width="16" height="16" fill="white"/>
</clipPath>
</defs>
</svg>
