<svg width="15" height="17" viewBox="0 0 15 17" fill="none" xmlns="http://www.w3.org/2000/svg">
<path d="M13.5807 5.92906C11.1369 1.65573 3.96492 0.719727 3.96492 0.719727C3.96492 0.719727 7.27529 4.27973 3.04453 7.09773C0.370975 8.87506 -0.688096 11.1844 0.457218 13.7071C1.33345 15.6397 3.18942 16.4244 5.19096 16.7197C4.67694 15.7637 4.54792 14.3831 4.92809 12.9677C4.96603 12.8264 5.00812 12.6784 5.05642 12.5444C5.61734 13.3831 6.53774 13.8417 7.43605 13.6297C8.66623 13.3471 9.38791 11.9091 9.05191 10.4311C8.97532 10.1104 8.85044 9.80239 8.6821 9.51639C8.73039 9.52773 8.77869 9.53173 8.82836 9.54773C10.3635 9.97106 11.1059 12.1891 10.4863 14.5044C10.3028 15.2057 9.993 15.8704 9.57144 16.4677C12.207 15.6477 13.9602 13.5937 14.4425 11.7637C14.951 9.85906 14.5653 7.63973 13.5807 5.92906Z" fill="#FAFAFA"/>
</svg>
