<svg width="24" height="24" viewBox="0 0 24 24" fill="none" xmlns="http://www.w3.org/2000/svg">
<path d="M22.9601 10.9994C22.695 10.9994 22.4407 10.894 22.2532 10.7065C22.0657 10.519 21.9604 10.2647 21.9604 9.99958C21.9582 7.87896 21.1149 5.8458 19.6154 4.3463C18.1159 2.84679 16.0827 2.00344 13.9621 2.00132C13.6969 2.00132 13.4426 1.89599 13.2551 1.70849C13.0676 1.521 12.9623 1.2667 12.9623 1.00154C12.9623 0.736383 13.0676 0.482084 13.2551 0.294589C13.4426 0.107093 13.6969 0.00175928 13.9621 0.00175928C16.6128 0.00467024 19.1541 1.05894 21.0284 2.93327C22.9027 4.80759 23.957 7.34889 23.9599 9.99958C23.9599 10.2647 23.8546 10.519 23.6671 10.7065C23.4796 10.894 23.2253 10.9994 22.9601 10.9994ZM19.9608 9.99958C19.9608 8.40863 19.3288 6.88284 18.2038 5.75786C17.0788 4.63289 15.553 4.00089 13.9621 4.00089C13.6969 4.00089 13.4426 4.10622 13.2551 4.29372C13.0676 4.48121 12.9623 4.73551 12.9623 5.00067C12.9623 5.26583 13.0676 5.52013 13.2551 5.70762C13.4426 5.89512 13.6969 6.00045 13.9621 6.00045C15.0227 6.00045 16.0399 6.42179 16.7899 7.17177C17.5399 7.92175 17.9612 8.93894 17.9612 9.99958C17.9612 10.2647 18.0666 10.519 18.2541 10.7065C18.4415 10.894 18.6958 10.9994 18.961 10.9994C19.2262 10.9994 19.4805 10.894 19.668 10.7065C19.8555 10.519 19.9608 10.2647 19.9608 9.99958ZM22.1433 22.1609L23.0531 21.1122C23.6322 20.5312 23.9574 19.7444 23.9574 18.9241C23.9574 18.1039 23.6322 17.3171 23.0531 16.7361C23.0221 16.7051 20.6166 14.8545 20.6166 14.8545C20.0393 14.305 19.2725 13.999 18.4754 14.0001C17.6783 14.0012 16.9124 14.3094 16.3366 14.8605L14.431 16.4662C12.8755 15.8224 11.4625 14.8777 10.2732 13.6863C9.08384 12.4949 8.14158 11.0803 7.5005 9.52368L9.10016 7.6241C9.65175 7.0484 9.96027 6.28227 9.96157 5.48497C9.96287 4.68767 9.65686 3.92053 9.10715 3.34303C9.10715 3.34303 7.25456 0.940555 7.22356 0.909561C6.65314 0.335435 5.87974 0.00877977 5.07046 0.000174411C4.26118 -0.00843094 3.48101 0.301704 2.89851 0.863571L1.74876 1.86335C-5.04376 9.74364 9.58305 24.2575 17.7233 23.9965C18.5453 24.0013 19.3599 23.8413 20.1191 23.526C20.8782 23.2108 21.5665 22.7466 22.1433 22.1609Z" fill="#07A4FC" fill-opacity="0.8"/>
</svg>
