<svg width="393" height="139" viewBox="0 0 393 139" fill="none" xmlns="http://www.w3.org/2000/svg">
<g clip-path="url(#clip0_43_1016)">
<path opacity="0.7" d="M521.243 118.612C507.48 89.33 491.066 60.173 466.224 38.1344C429.702 5.7264 376.076 -7.64557 330.424 4.33125C291.724 14.4603 261.097 40.4073 227.689 60.7608C186.542 85.8405 140.215 102.794 93.6355 118.141C68.6152 126.389 42.7785 134.55 22.9889 150.886C-4.48377 173.569 -16.9152 210.45 -13.425 246.33C-9.93489 282.21 8.33304 316.836 33.7298 344.843C47.2445 359.747 63.4244 373.356 82.6923 379.654C103.079 386.318 125.167 384.269 145.513 391.078C164.368 397.385 180.115 410.792 193.609 425.205C211.229 444.023 225.984 465.12 237.44 487.872C250.402 513.654 258.814 541.106 271.604 566.918C284.394 592.729 302.716 617.819 329.019 631.607C353.744 644.572 382.403 646.077 409.747 645.997C454.418 645.906 499.006 642.341 543.069 635.337C572.605 630.623 602.235 624.19 627.759 610.194C676.564 583.44 705.581 528.376 700.068 472.996C695.499 427.113 669.637 384.385 640.813 345.913C614.529 310.83 578.425 275.721 563.028 235.021C548.362 196.194 539.209 156.857 521.243 118.612Z" fill="#0399F4"/>
<path d="M668.243 58.612C654.48 29.33 638.066 0.172966 613.224 -21.8656C576.702 -54.2736 523.076 -67.6456 477.424 -55.6687C438.724 -45.5397 408.097 -19.5927 374.689 0.760807C333.542 25.8405 287.215 42.7944 240.636 58.1407C215.615 66.3888 189.779 74.5503 169.989 90.8857C142.516 113.569 130.085 150.45 133.575 186.33C137.065 222.21 155.333 256.836 180.73 284.843C194.244 299.747 210.424 313.356 229.692 319.654C250.079 326.318 272.167 324.269 292.513 331.078C311.368 337.385 327.115 350.792 340.609 365.205C358.229 384.023 372.984 405.12 384.44 427.872C397.402 453.654 405.814 481.106 418.604 506.918C431.394 532.729 449.716 557.819 476.019 571.607C500.744 584.572 529.403 586.077 556.747 585.997C601.418 585.906 646.006 582.341 690.069 575.337C719.605 570.623 749.235 564.19 774.759 550.194C823.564 523.44 852.581 468.376 847.068 412.996C842.499 367.113 816.637 324.385 787.813 285.913C761.529 250.83 725.425 215.721 710.028 175.021C695.362 136.194 686.209 96.8571 668.243 58.612Z" fill="#07A4FC"/>
</g>
<defs>
<clipPath id="clip0_43_1016">
<path d="M0 0H393V89C393 116.614 370.614 139 343 139H50C22.3858 139 0 116.614 0 89V0Z" fill="white"/>
</clipPath>
</defs>
</svg>
