<svg width="20" height="20" viewBox="0 0 20 20" fill="none" xmlns="http://www.w3.org/2000/svg">
<g clip-path="url(#clip0_145_5170)">
<path d="M17.9385 6.90327L11.6143 0.732433C11.0652 0.182433 10.2752 -0.0867336 9.50767 0.0232664L3.76767 0.808266C3.31184 0.870766 2.99267 1.29077 3.05517 1.7466C3.11767 2.20243 3.53684 2.52077 3.99434 2.4591L9.73517 1.6741C9.99017 1.6391 10.2535 1.7266 10.4443 1.91743L16.7693 8.08827C17.6402 8.9591 17.7252 10.3216 17.0385 11.2941C16.8435 10.9049 16.6027 10.5341 16.2793 10.2108L10.0502 4.0341C9.50184 3.48577 8.71934 3.2216 7.94351 3.32493L2.20267 4.10993C1.82434 4.1616 1.52934 4.4641 1.48767 4.8441L0.850174 10.6074C0.766841 11.3666 1.02851 12.1108 1.57017 12.6516L7.75017 18.7791C8.53684 19.5666 9.58267 19.9991 10.6952 19.9991H10.7093C11.8277 19.9958 12.876 19.5558 13.6618 18.7599L16.301 16.0866C17.0735 15.3041 17.4618 14.2874 17.4868 13.2633L17.9677 12.7833C19.5718 11.1583 19.5627 8.52327 17.941 6.90243L17.9385 6.90327ZM5.00017 8.33327C4.54017 8.33327 4.16684 7.95993 4.16684 7.49993C4.17184 6.40993 5.82851 6.41077 5.83351 7.49993C5.83351 7.95993 5.46017 8.33327 5.00017 8.33327Z" fill="white"/>
</g>
<defs>
<clipPath id="clip0_145_5170">
<rect width="20" height="20" fill="white"/>
</clipPath>
</defs>
</svg>
