<svg width="14" height="14" viewBox="0 0 14 14" fill="none" xmlns="http://www.w3.org/2000/svg">
<path fill-rule="evenodd" clip-rule="evenodd" d="M0.717609 6.93661C0.596805 6.93661 0.498859 6.83867 0.498859 6.71786C0.498859 6.59706 0.596805 6.49911 0.717609 6.49911H1.7515C1.87231 6.49911 1.97025 6.59706 1.97025 6.71786C1.97025 6.83867 1.87231 6.93661 1.7515 6.93661H0.717609ZM7.49659 2.63522C7.49659 2.77129 7.59361 2.88227 7.71255 2.88227H7.95679V3.27195C8.0304 3.26336 8.10447 3.25636 8.17904 3.25103C8.17904 2.83565 8.17904 2.42025 8.17904 2.00484H7.71258C7.59364 2.00484 7.49662 2.11583 7.49662 2.25189L7.49659 2.63522ZM4.6357 5.13081C4.87733 4.82488 5.15419 4.54806 5.46008 4.30642L5.3949 4.24123C5.31079 4.15712 5.17358 4.15712 5.08947 4.24123L4.57051 4.76019C4.4864 4.8443 4.4864 4.98151 4.57051 5.06565L4.6357 5.13081ZM13.6719 4.51434C13.6719 3.60858 13.6719 2.70282 13.6719 1.79705C13.6719 1.49843 13.4283 1.25488 13.1297 1.25488C11.8061 1.25488 10.4824 1.25488 9.15871 1.25488C8.86009 1.25488 8.61654 1.49843 8.61654 1.79705V4.51434C8.61654 4.81296 8.86009 5.05651 9.15871 5.05651H9.61748V6.02506C9.61748 6.07436 9.67745 6.09847 9.7116 6.06295L10.6784 5.05651H13.1297C13.4283 5.05651 13.6719 4.81296 13.6719 4.51434ZM9.77515 2.39796C9.65434 2.39796 9.5564 2.30002 9.5564 2.17921C9.5564 2.05841 9.65434 1.96046 9.77515 1.96046H12.5133C12.6341 1.96046 12.732 2.05841 12.732 2.17921C12.732 2.30002 12.6341 2.39796 12.5133 2.39796H9.77515ZM9.77515 4.35093C9.65434 4.35093 9.5564 4.25299 9.5564 4.13218C9.5564 4.01138 9.65434 3.91343 9.77515 3.91343H12.5133C12.6341 3.91343 12.732 4.01138 12.732 4.13218C12.732 4.25299 12.6341 4.35093 12.5133 4.35093H9.77515ZM9.77515 3.37446C9.65434 3.37446 9.5564 3.27652 9.5564 3.15571C9.5564 3.03491 9.65434 2.93696 9.77515 2.93696H12.5133C12.6341 2.93696 12.732 3.03491 12.732 3.15571C12.732 3.27652 12.6341 3.37446 12.5133 3.37446H9.77515ZM10.6904 10.0518C10.7758 10.1372 10.7758 10.2757 10.6904 10.3611C10.605 10.4465 10.4665 10.4465 10.3811 10.3611L10.1647 10.1447C10.0793 10.0593 10.0793 9.92083 10.1647 9.83543C10.2502 9.75001 10.3887 9.75001 10.4741 9.83543L10.6904 10.0518ZM8.75848 7.77642C8.85123 7.82326 8.92692 7.89895 8.97376 7.9917H10.2009C10.3217 7.9917 10.4197 8.08965 10.4197 8.21045C10.4197 8.33126 10.3217 8.4292 10.2009 8.4292H8.97376C8.89372 8.58771 8.72944 8.6964 8.53973 8.6964C8.27135 8.6964 8.05378 8.47883 8.05378 8.21045C8.05378 8.02074 8.16249 7.85646 8.32098 7.77642V6.54926C8.32098 6.42846 8.41892 6.33051 8.53973 6.33051C8.66053 6.33051 8.75848 6.42846 8.75848 6.54926V7.77642ZM10.3811 6.05975C10.4665 5.97433 10.605 5.97433 10.6904 6.05975C10.7758 6.14518 10.7758 6.28367 10.6904 6.36907L10.474 6.58544C10.3886 6.67086 10.2501 6.67086 10.1647 6.58544C10.0793 6.50002 10.0793 6.36152 10.1647 6.2761L10.3811 6.05975ZM11.3625 7.9917C11.4833 7.9917 11.5813 8.08965 11.5813 8.21045C11.5813 8.33126 11.4833 8.4292 11.3625 8.4292H11.0566C10.9358 8.4292 10.8378 8.33126 10.8378 8.21045C10.8378 8.08965 10.9358 7.9917 11.0566 7.9917H11.3625ZM8.32098 5.38765C8.32098 5.26684 8.41892 5.1689 8.53973 5.1689C8.66053 5.1689 8.75848 5.26684 8.75848 5.38765V5.69365C8.75848 5.81445 8.66053 5.9124 8.53973 5.9124C8.41892 5.9124 8.32098 5.81445 8.32098 5.69365V5.38765ZM6.38906 6.36909C6.30364 6.28367 6.30364 6.14518 6.38906 6.05978C6.47448 5.97436 6.61298 5.97436 6.69837 6.05978L6.91474 6.27615C7.00017 6.36157 7.00017 6.50007 6.91474 6.58549C6.82932 6.67091 6.69083 6.67091 6.60543 6.58549L6.38906 6.36909ZM5.71695 8.4292C5.59615 8.4292 5.4982 8.33126 5.4982 8.21045C5.4982 8.08965 5.59615 7.9917 5.71695 7.9917H6.02293C6.14373 7.9917 6.24168 8.08965 6.24168 8.21045C6.24168 8.33126 6.14373 8.4292 6.02293 8.4292H5.71695ZM6.69837 10.3611C6.61295 10.4465 6.47446 10.4465 6.38906 10.3611C6.30364 10.2757 6.30364 10.1372 6.38906 10.0518L6.60543 9.83543C6.69085 9.75001 6.82935 9.75001 6.91474 9.83543C7.00017 9.92086 7.00017 10.0594 6.91474 10.1447L6.69837 10.3611ZM8.75848 11.0333C8.75848 11.1541 8.66053 11.252 8.53973 11.252C8.41892 11.252 8.32098 11.1541 8.32098 11.0333V10.7273C8.32098 10.6065 8.41892 10.5085 8.53973 10.5085C8.66053 10.5085 8.75848 10.6065 8.75848 10.7273V11.0333ZM12.1712 5.49401C12.7385 6.25116 13.0746 7.19157 13.0746 8.21045C13.0746 10.7149 11.0443 12.7452 8.53976 12.7452C6.64079 12.7452 5.01474 11.5779 4.33932 9.92179H3.71006C3.58925 9.92179 3.49131 9.82384 3.49131 9.70304C3.49131 9.58223 3.58925 9.48429 3.71006 9.48429H4.1866C4.06853 9.08015 4.00496 8.65274 4.00496 8.21045C4.00496 5.82736 5.84322 3.87376 8.17907 3.68993V4.51434C8.17907 4.57146 8.18401 4.62743 8.19348 4.6819C6.39797 4.85597 4.99436 6.36926 4.99436 8.21042C4.99436 10.1685 6.58172 11.7558 8.53976 11.7558C10.4978 11.7558 12.0851 10.1685 12.0851 8.21042C12.0851 7.13201 11.6035 6.16618 10.8438 5.51591L10.8649 5.49398H12.1712V5.49401ZM1.64229 9.92179C1.52149 9.92179 1.42354 9.82384 1.42354 9.70304C1.42354 9.58223 1.52149 9.48429 1.64229 9.48429H2.67616C2.79697 9.48429 2.89491 9.58223 2.89491 9.70304C2.89491 9.82384 2.79697 9.92179 2.67616 9.92179H1.64229ZM2.35107 8.92675H3.38497C3.50577 8.92675 3.60372 8.8288 3.60372 8.708C3.60372 8.58719 3.50577 8.48925 3.38497 8.48925H2.35107C2.23027 8.48925 2.13232 8.58719 2.13232 8.708C2.13232 8.8288 2.23027 8.92675 2.35107 8.92675ZM0.546875 8.92675C0.42607 8.92675 0.328125 8.8288 0.328125 8.708C0.328125 8.58719 0.42607 8.48925 0.546875 8.48925H1.52225C1.64306 8.48925 1.741 8.58719 1.741 8.708C1.741 8.8288 1.64306 8.92675 1.52225 8.92675H0.546875ZM1.64229 7.93168C1.52149 7.93168 1.42354 7.83374 1.42354 7.71293C1.42354 7.59213 1.52149 7.49418 1.64229 7.49418H2.67616C2.79697 7.49418 2.89491 7.59213 2.89491 7.71293C2.89491 7.83374 2.79697 7.93168 2.67616 7.93168H1.64229ZM2.58032 6.93661H3.61422C3.73502 6.93661 3.83297 6.83867 3.83297 6.71786C3.83297 6.59706 3.73502 6.49911 3.61422 6.49911H2.58032C2.45952 6.49911 2.36157 6.59706 2.36157 6.71786C2.36157 6.83867 2.45952 6.93661 2.58032 6.93661Z" fill="#07A4FC"/>
</svg>
