<svg width="244" height="88" viewBox="0 0 244 88" fill="none" xmlns="http://www.w3.org/2000/svg">
<path d="M65.3787 26.6178C62.896 21.9592 59.4439 18.3674 55.0182 15.8424C50.5946 13.3173 45.5784 12.0538 39.9716 12.0538H21.1279V75.8319H40.1028C45.68 75.8023 50.6877 74.5175 55.1283 71.9777C59.5667 69.4378 63.0061 65.8608 65.4444 61.2467C67.8826 56.6326 69.1018 51.3624 69.1018 45.4339V42.4983C69.1018 36.5698 67.8593 31.2784 65.3787 26.6199V26.6178ZM58.1422 51.6206C57.5517 53.2102 55.5452 57.9893 50.3618 61.1959C46.5097 63.5792 42.7739 63.9369 40.9854 63.9898C37.927 63.9242 34.8665 63.8564 31.8081 63.7908V23.6906H40.7865C42.1538 23.6271 47.1129 23.5615 51.7587 27.0813C56.7771 30.8847 57.9094 36.2036 58.1422 37.4545C58.5804 39.3764 58.9677 41.8887 58.9402 44.8371C58.9148 47.5145 58.555 49.8152 58.1422 51.6206ZM93.6813 40.0134C92.2188 40.4346 89.7022 41.3596 87.1941 43.455C84.7219 45.5207 83.3716 47.7918 82.6943 49.1464V75.743C78.8972 75.7663 75.5043 75.7197 71.7072 75.743C71.8427 59.835 71.5718 43.3449 71.7072 27.4369C75.2377 27.3924 79.1639 27.4813 82.6943 27.4369C82.7387 30.3048 82.6498 33.5707 82.6943 36.4386C83.5346 34.9655 85.0034 32.4023 88.1211 30.3493C90.1805 28.9947 92.2802 27.7903 93.6813 27.4369C93.7258 31.452 93.6369 35.9962 93.6813 40.0134ZM95.4021 17.906C95.6772 14.4052 98.7843 11.5606 102.418 11.8167C106.038 12.0728 108.724 15.3027 108.508 18.8331C108.294 22.3063 105.329 25.0896 101.889 25.0536C98.1451 25.0155 95.1079 21.6523 95.4021 17.906ZM107.316 75.743C103.655 75.7875 99.7262 75.6986 96.0646 75.743C96.1535 59.7249 95.9757 43.455 96.0646 27.4369C99.7262 27.5258 103.655 27.348 107.316 27.4369C107.227 43.3216 107.405 59.8583 107.316 75.743ZM223.663 51.9974C223.697 53.7605 223.663 61.742 217.574 68.3456C217.574 68.3456 210.915 75.5843 200.472 75.8806C200.091 75.8912 199.795 75.8912 199.6 75.8912C196.614 75.8891 194.148 75.3303 192.448 74.8138C187.288 73.0148 184.234 69.4971 182.949 67.8123C183.982 66.1593 185.131 63.975 186.037 61.2827C187.273 57.6147 187.608 54.351 187.658 51.9995C194.495 48.5474 201.329 45.0953 208.166 41.6432C207.827 41.3786 201.729 36.8005 194.597 39.4843C189.508 41.3998 185.976 46.2277 185.595 51.7942C185.54 53.9446 185.231 56.9141 184.139 60.2668C183.207 63.1262 181.988 65.3994 180.934 67.0524C176.511 72.4475 169.793 75.8912 162.27 75.8912C161.233 75.8912 158.327 75.8234 155.167 74.8287C148.644 72.7714 144.735 67.916 143.268 65.8756C145.033 61.2573 146.798 56.639 148.564 52.0207C155.938 48.5178 163.312 45.0149 170.686 41.5141C169.367 40.4304 167.837 39.5965 166.165 39.0843C165.778 38.9658 164.336 38.5424 162.27 38.5022C160.964 38.4768 157.347 38.4091 153.77 40.5489C149.091 43.347 147.59 48.0627 147.241 49.2861C145.359 54.26 143.478 59.2339 141.596 64.2078C140.104 68.0091 138.612 71.9438 137.119 75.7451C133.987 75.7896 130.854 75.7007 127.72 75.7451C121.41 59.6847 115.101 43.5015 108.789 27.439H119.776C124.189 38.735 128.6 50.1517 133.013 61.4478C135.064 55.8961 137.115 50.3465 139.168 44.7947C139.452 43.8529 139.793 42.9364 140.184 42.0475L140.235 41.912C140.724 40.8304 141.376 39.6007 142.241 38.316C142.252 38.299 142.263 38.2842 142.273 38.2673C142.368 38.1255 142.468 37.9837 142.57 37.8397C142.599 37.7974 142.629 37.7551 142.661 37.7149C142.826 37.4863 142.997 37.2556 143.177 37.0228C143.226 36.9593 143.274 36.8958 143.323 36.8344C143.37 36.7772 143.41 36.7201 143.456 36.6608C143.503 36.6037 143.552 36.5486 143.598 36.4915C143.685 36.3836 143.776 36.2777 143.865 36.174C143.988 36.028 144.112 35.8862 144.237 35.7465C144.333 35.6406 144.426 35.5348 144.523 35.4311C144.601 35.3464 144.678 35.2618 144.756 35.1792C144.91 35.0141 145.069 34.8533 145.228 34.6924C145.281 34.6395 145.332 34.5908 145.385 34.54C145.522 34.4046 145.66 34.2733 145.801 34.1421C145.85 34.0977 145.897 34.0511 145.945 34.0088C146.314 33.6701 146.693 33.3442 147.082 33.0288C147.112 33.0055 147.139 32.9823 147.169 32.959C147.336 32.8235 147.507 32.6902 147.679 32.5589C147.704 32.5399 147.73 32.5187 147.757 32.4997C147.941 32.36 148.128 32.2245 148.316 32.0891C148.418 32.0171 148.515 31.9515 148.614 31.8816C148.676 31.8393 148.737 31.7949 148.801 31.7525C150.219 30.7916 151.527 30.1122 152.549 29.6444C152.547 29.6593 152.545 29.672 152.543 29.6868C155.519 28.3724 158.81 27.6422 162.273 27.6422C165.964 27.6422 169.426 28.7216 169.426 28.7216C174.449 30.4064 177.567 33.5939 178.978 35.2491C177.905 36.8894 176.652 39.1499 175.668 42.0009C174.616 45.0508 174.22 47.7727 174.079 49.811L152.748 61.0012C153.648 61.9261 155.542 63.6173 158.454 64.4766C163.89 66.0788 168.381 63.4543 169.048 63.0479C174.409 59.7948 175.296 54.025 175.402 53.2525C175.711 51.4428 176.02 49.6353 176.329 47.8257C176.705 46.0118 177.313 43.8359 178.314 41.4718C179.144 39.5118 180.066 37.8482 180.934 36.483C182.545 34.5675 186.3 30.6265 192.446 28.7216C194.707 28.021 197.109 27.6422 199.6 27.6422C210.295 27.6422 219.364 34.6014 222.527 44.2381L222.495 44.2487C211.739 49.8745 200.984 55.5003 190.228 61.1261C190.215 61.1218 190.196 61.1134 190.181 61.107C191.216 62.0743 193.054 63.5368 195.706 64.4512C196.766 64.8174 202.076 66.6461 207.215 63.8395C213.73 60.2816 214.181 52.4355 214.198 51.9974H223.663Z" fill="#0793E8"/>
<mask id="mask0_95_3930" style="mask-type:luminance" maskUnits="userSpaceOnUse" x="21" y="11" width="203" height="65">
<path d="M65.3787 26.6178C62.896 21.9592 59.4439 18.3674 55.0182 15.8424C50.5946 13.3173 45.5784 12.0538 39.9716 12.0538H21.1279V75.8319H40.1028C45.68 75.8023 50.6877 74.5175 55.1283 71.9777C59.5667 69.4378 63.0061 65.8608 65.4444 61.2467C67.8826 56.6326 69.1018 51.3624 69.1018 45.4339V42.4983C69.1018 36.5698 67.8593 31.2784 65.3787 26.6199V26.6178ZM58.1422 51.6206C57.5517 53.2102 55.5452 57.9893 50.3618 61.1959C46.5097 63.5792 42.7739 63.9369 40.9854 63.9898C37.927 63.9242 34.8665 63.8564 31.8081 63.7908V23.6906H40.7865C42.1538 23.6271 47.1129 23.5615 51.7587 27.0813C56.7771 30.8847 57.9094 36.2036 58.1422 37.4545C58.5804 39.3764 58.9677 41.8887 58.9402 44.8371C58.9148 47.5145 58.555 49.8152 58.1422 51.6206ZM93.6813 40.0134C92.2188 40.4346 89.7022 41.3596 87.1941 43.455C84.7219 45.5207 83.3716 47.7918 82.6943 49.1464V75.743C78.8972 75.7663 75.5043 75.7197 71.7072 75.743C71.8427 59.835 71.5718 43.3449 71.7072 27.4369C75.2377 27.3924 79.1639 27.4813 82.6943 27.4369C82.7387 30.3048 82.6498 33.5707 82.6943 36.4386C83.5346 34.9655 85.0034 32.4023 88.1211 30.3493C90.1805 28.9947 92.2802 27.7903 93.6813 27.4369C93.7258 31.452 93.6369 35.9962 93.6813 40.0134ZM95.4021 17.906C95.6772 14.4052 98.7843 11.5606 102.418 11.8167C106.038 12.0728 108.724 15.3027 108.508 18.8331C108.294 22.3063 105.329 25.0896 101.889 25.0536C98.1451 25.0155 95.1079 21.6523 95.4021 17.906ZM107.316 75.743C103.655 75.7875 99.7262 75.6986 96.0646 75.743C96.1535 59.7249 95.9757 43.455 96.0646 27.4369C99.7262 27.5258 103.655 27.348 107.316 27.4369C107.227 43.3216 107.405 59.8583 107.316 75.743ZM223.663 51.9974C223.697 53.7605 223.663 61.742 217.574 68.3456C217.574 68.3456 210.915 75.5843 200.472 75.8806C200.091 75.8912 199.795 75.8912 199.6 75.8912C196.614 75.8891 194.148 75.3303 192.448 74.8138C187.288 73.0148 184.234 69.4971 182.949 67.8123C183.982 66.1593 185.131 63.975 186.037 61.2827C187.273 57.6147 187.608 54.351 187.658 51.9995C194.495 48.5474 201.329 45.0953 208.166 41.6432C207.827 41.3786 201.729 36.8005 194.597 39.4843C189.508 41.3998 185.976 46.2277 185.595 51.7942C185.54 53.9446 185.231 56.9141 184.139 60.2668C183.207 63.1262 181.988 65.3994 180.934 67.0524C176.511 72.4475 169.793 75.8912 162.27 75.8912C161.233 75.8912 158.327 75.8234 155.167 74.8287C148.644 72.7714 144.735 67.916 143.268 65.8756C145.033 61.2573 146.798 56.639 148.564 52.0207C155.938 48.5178 163.312 45.0149 170.686 41.5141C169.367 40.4304 167.837 39.5965 166.165 39.0843C165.778 38.9658 164.336 38.5424 162.27 38.5022C160.964 38.4768 157.347 38.4091 153.77 40.5489C149.091 43.347 147.59 48.0627 147.241 49.2861C145.359 54.26 143.478 59.2339 141.596 64.2078C140.104 68.0091 138.612 71.9438 137.119 75.7451C133.987 75.7896 130.854 75.7007 127.72 75.7451C121.41 59.6847 115.101 43.5015 108.789 27.439H119.776C124.189 38.735 128.6 50.1517 133.013 61.4478C135.064 55.8961 137.115 50.3465 139.168 44.7947C139.452 43.8529 139.793 42.9364 140.184 42.0475L140.235 41.912C140.724 40.8304 141.376 39.6007 142.241 38.316C142.252 38.299 142.263 38.2842 142.273 38.2673C142.368 38.1255 142.468 37.9837 142.57 37.8397C142.599 37.7974 142.629 37.7551 142.661 37.7149C142.826 37.4863 142.997 37.2556 143.177 37.0228C143.226 36.9593 143.274 36.8958 143.323 36.8344C143.37 36.7772 143.41 36.7201 143.456 36.6608C143.503 36.6037 143.552 36.5486 143.598 36.4915C143.685 36.3836 143.776 36.2777 143.865 36.174C143.988 36.028 144.112 35.8862 144.237 35.7465C144.333 35.6406 144.426 35.5348 144.523 35.4311C144.601 35.3464 144.678 35.2618 144.756 35.1792C144.91 35.0141 145.069 34.8533 145.228 34.6924C145.281 34.6395 145.332 34.5908 145.385 34.54C145.522 34.4046 145.66 34.2733 145.801 34.1421C145.85 34.0977 145.897 34.0511 145.945 34.0088C146.314 33.6701 146.693 33.3442 147.082 33.0288C147.112 33.0055 147.139 32.9823 147.169 32.959C147.336 32.8235 147.507 32.6902 147.679 32.5589C147.704 32.5399 147.73 32.5187 147.757 32.4997C147.941 32.36 148.128 32.2245 148.316 32.0891C148.418 32.0171 148.515 31.9515 148.614 31.8816C148.676 31.8393 148.737 31.7949 148.801 31.7525C150.219 30.7916 151.527 30.1122 152.549 29.6444C152.547 29.6593 152.545 29.672 152.543 29.6868C155.519 28.3724 158.81 27.6422 162.273 27.6422C165.964 27.6422 169.426 28.7216 169.426 28.7216C174.449 30.4064 177.567 33.5939 178.978 35.2491C177.905 36.8894 176.652 39.1499 175.668 42.0009C174.616 45.0508 174.22 47.7727 174.079 49.811L152.748 61.0012C153.648 61.9261 155.542 63.6173 158.454 64.4766C163.89 66.0788 168.381 63.4543 169.048 63.0479C174.409 59.7948 175.296 54.025 175.402 53.2525C175.711 51.4428 176.02 49.6353 176.329 47.8257C176.705 46.0118 177.313 43.8359 178.314 41.4718C179.144 39.5118 180.066 37.8482 180.934 36.483C182.545 34.5675 186.3 30.6265 192.446 28.7216C194.707 28.021 197.109 27.6422 199.6 27.6422C210.295 27.6422 219.364 34.6014 222.527 44.2381L222.495 44.2487C211.739 49.8745 200.984 55.5003 190.228 61.1261C190.215 61.1218 190.196 61.1134 190.181 61.107C191.216 62.0743 193.054 63.5368 195.706 64.4512C196.766 64.8174 202.076 66.6461 207.215 63.8395C213.73 60.2816 214.181 52.4355 214.198 51.9974H223.663Z" fill="white"/>
</mask>
<g mask="url(#mask0_95_3930)">
<path d="M229.354 4.89136H14.9072V83.1743H229.354V4.89136Z" fill="url(#paint0_linear_95_3930)"/>
<path style="mix-blend-mode:overlay" d="M229.354 4.89136H14.9072V83.1743H229.354V4.89136Z" fill="url(#paint1_linear_95_3930)"/>
</g>
<path style="mix-blend-mode:overlay" d="M65.3787 26.6177C62.896 21.9592 59.4439 18.3674 55.0182 15.8423C50.5946 13.3173 45.5784 12.0537 39.9716 12.0537H21.1279V75.8319H40.1028C45.68 75.8022 50.6877 74.5175 55.1283 71.9776C59.5667 69.4377 63.0061 65.8608 65.4444 61.2467C67.8826 56.6326 69.1018 51.3624 69.1018 45.4339V42.4982C69.1018 36.5698 67.8593 31.2784 65.3787 26.6198V26.6177ZM58.1422 51.6206C57.5517 53.2101 55.5452 57.9893 50.3618 61.1959C46.5097 63.5791 42.7739 63.9368 40.9854 63.9897C37.927 63.9241 34.8665 63.8564 31.8081 63.7908V23.6905H40.7865C42.1538 23.627 47.1129 23.5614 51.7587 27.0813C56.7771 30.8847 57.9094 36.2036 58.1422 37.4545C58.5804 39.3763 58.9677 41.8887 58.9402 44.837C58.9148 47.5145 58.555 49.8152 58.1422 51.6206Z" fill="url(#paint2_linear_95_3930)"/>
<path style="mix-blend-mode:overlay" d="M93.6811 40.0155C92.2186 40.4367 89.702 41.3617 87.1939 43.4571C84.7218 45.5228 83.3714 47.7939 82.6941 49.1485V75.7451C78.897 75.7684 75.5042 75.7218 71.7071 75.7451C71.8425 59.8371 71.5716 43.347 71.7071 27.439C75.2375 27.3945 79.1637 27.4834 82.6941 27.439C82.7386 30.3069 82.6497 33.5728 82.6941 36.4407C83.5344 34.9676 85.0033 32.4044 88.121 30.3514C90.1804 28.9968 92.28 27.7924 93.6811 27.439C93.7256 31.4541 93.6367 35.9983 93.6811 40.0155Z" fill="url(#paint3_linear_95_3930)"/>
<path style="mix-blend-mode:overlay" d="M95.4025 17.9081C95.6777 14.4073 98.7848 11.5627 102.419 11.8188C106.038 12.0749 108.724 15.3047 108.508 18.8352C108.294 22.3084 105.329 25.0917 101.89 25.0557C98.1456 25.0176 95.1083 21.6544 95.4025 17.9081Z" fill="url(#paint4_linear_95_3930)"/>
<path style="mix-blend-mode:overlay" d="M107.316 75.7451C103.655 75.7896 99.7264 75.7007 96.0647 75.7451C96.1536 59.727 95.9758 43.4571 96.0647 27.439C99.7264 27.5279 103.655 27.3501 107.316 27.439C107.227 43.3237 107.405 59.8604 107.316 75.7451Z" fill="url(#paint5_linear_95_3930)"/>
<path style="mix-blend-mode:overlay" d="M223.661 52.0016C223.695 53.7647 223.661 61.7462 217.572 68.3499C217.572 68.3499 210.913 75.5885 200.47 75.8848C200.089 75.8954 199.793 75.8954 199.598 75.8954C196.611 75.8933 194.146 75.3345 192.446 74.8181C187.286 73.019 184.232 69.5013 182.947 67.8165C183.98 66.1635 185.129 63.9792 186.035 61.2869C187.271 57.619 187.605 54.3552 187.656 52.0037C194.493 48.5516 201.327 45.0995 208.164 41.6474C207.825 41.3829 201.727 36.8048 194.594 39.4886C189.506 41.404 185.974 46.2319 185.593 51.7984C185.538 53.9489 185.229 56.9184 184.136 60.271C183.205 63.1305 181.986 65.4037 180.932 67.0567C176.508 72.4518 169.79 75.8954 162.268 75.8954C161.231 75.8954 158.325 75.8277 155.165 74.8329C148.642 72.7756 144.733 67.9202 143.266 65.8799C145.031 61.2616 146.796 56.6432 148.561 52.0249C155.935 48.522 163.31 45.0191 170.684 41.5183C169.365 40.4347 167.835 39.6007 166.163 39.0885C165.775 38.97 164.334 38.5467 162.268 38.5065C160.962 38.4811 157.345 38.4133 153.768 40.5532C149.088 43.3513 147.588 48.0669 147.239 49.2903C145.357 54.2642 143.475 59.2381 141.594 64.212C140.102 68.0134 138.609 71.948 137.117 75.7494C133.985 75.7938 130.852 75.7049 127.718 75.7494C121.408 59.689 115.099 43.5058 108.787 27.4432H119.774C124.187 38.7393 128.598 50.156 133.011 61.452C135.062 55.9003 137.113 50.3507 139.166 44.799C139.45 43.8571 139.79 42.9407 140.182 42.0517L140.233 41.9162C140.722 40.8347 141.374 39.605 142.239 38.3202C142.25 38.3033 142.26 38.2885 142.271 38.2715C142.366 38.1297 142.466 37.9879 142.567 37.844C142.597 37.8017 142.627 37.7593 142.658 37.7191C142.823 37.4905 142.995 37.2598 143.175 37.027C143.223 36.9635 143.272 36.9 143.321 36.8386C143.367 36.7815 143.408 36.7243 143.454 36.6651C143.501 36.6079 143.549 36.5529 143.596 36.4957C143.683 36.3878 143.774 36.282 143.863 36.1783C143.985 36.0322 144.11 35.8904 144.235 35.7507C144.33 35.6449 144.424 35.5391 144.521 35.4353C144.599 35.3507 144.675 35.266 144.754 35.1835C144.908 35.0184 145.067 34.8575 145.226 34.6967C145.279 34.6438 145.329 34.5951 145.382 34.5443C145.52 34.4088 145.657 34.2776 145.799 34.1464C145.848 34.1019 145.895 34.0554 145.943 34.013C146.312 33.6744 146.69 33.3484 147.08 33.0331C147.109 33.0098 147.137 32.9865 147.167 32.9632C147.334 32.8278 147.505 32.6944 147.677 32.5632C147.702 32.5441 147.727 32.523 147.755 32.5039C147.939 32.3642 148.125 32.2288 148.314 32.0933C148.415 32.0213 148.513 31.9557 148.612 31.8859C148.674 31.8436 148.735 31.7991 148.798 31.7568C150.217 30.7959 151.525 30.1164 152.547 29.6487C152.545 29.6635 152.543 29.6762 152.541 29.691C155.516 28.3766 158.808 27.6464 162.27 27.6464C165.962 27.6464 169.424 28.7259 169.424 28.7259C174.447 30.4106 177.565 33.5982 178.976 35.2533C177.903 36.8937 176.65 39.1541 175.666 42.0051C174.614 45.0551 174.218 47.777 174.076 49.8152L152.746 61.0055C153.645 61.9304 155.54 63.6215 158.452 64.4808C163.887 66.0831 168.379 63.4585 169.045 63.0522C174.407 59.799 175.294 54.0293 175.399 53.2567C175.708 51.4471 176.017 49.6395 176.326 47.8299C176.703 46.016 177.311 43.8402 178.312 41.476C179.141 39.5161 180.064 37.8525 180.932 36.4873C182.543 34.5718 186.297 30.6308 192.444 28.7259C194.704 28.0253 197.107 27.6464 199.598 27.6464C210.293 27.6464 219.362 34.6057 222.524 44.2423L222.493 44.2529C211.736 49.8787 200.982 55.5045 190.226 61.1303C190.213 61.1261 190.194 61.1176 190.179 61.1113C191.214 62.0785 193.051 63.5411 195.703 64.4554C196.764 64.8216 202.074 66.6503 207.213 63.8438C213.728 60.2858 214.179 52.4398 214.196 52.0016H223.661Z" fill="url(#paint6_linear_95_3930)"/>
<path d="M65.3787 26.6178C62.896 21.9592 59.4439 18.3674 55.0182 15.8424C50.5946 13.3173 45.5784 12.0538 39.9716 12.0538H21.1279V75.8319H40.1028C45.68 75.8023 50.6877 74.5175 55.1283 71.9777C59.5667 69.4378 63.0061 65.8608 65.4444 61.2467C67.8826 56.6326 69.1018 51.3624 69.1018 45.4339V42.4983C69.1018 36.5698 67.8593 31.2784 65.3787 26.6199V26.6178ZM58.1422 51.6206C57.5517 53.2102 55.5452 57.9893 50.3618 61.1959C46.5097 63.5792 42.7739 63.9369 40.9854 63.9898C37.927 63.9242 34.8665 63.8564 31.8081 63.7908V23.6906H40.7865C42.1538 23.6271 47.1129 23.5615 51.7587 27.0813C56.7771 30.8847 57.9094 36.2036 58.1422 37.4545C58.5804 39.3764 58.9677 41.8887 58.9402 44.8371C58.9148 47.5145 58.555 49.8152 58.1422 51.6206ZM93.6813 40.0134C92.2188 40.4346 89.7022 41.3596 87.1941 43.455C84.7219 45.5207 83.3716 47.7918 82.6943 49.1464V75.743C78.8972 75.7663 75.5043 75.7197 71.7072 75.743C71.8427 59.835 71.5718 43.3449 71.7072 27.4369C75.2377 27.3924 79.1639 27.4813 82.6943 27.4369C82.7387 30.3048 82.6498 33.5707 82.6943 36.4386C83.5346 34.9655 85.0034 32.4023 88.1211 30.3493C90.1805 28.9947 92.2802 27.7903 93.6813 27.4369C93.7258 31.452 93.6369 35.9962 93.6813 40.0134ZM95.4021 17.906C95.6772 14.4052 98.7843 11.5606 102.418 11.8167C106.038 12.0728 108.724 15.3027 108.508 18.8331C108.294 22.3063 105.329 25.0896 101.889 25.0536C98.1451 25.0155 95.1079 21.6523 95.4021 17.906ZM107.316 75.743C103.655 75.7875 99.7262 75.6986 96.0646 75.743C96.1535 59.7249 95.9757 43.455 96.0646 27.4369C99.7262 27.5258 103.655 27.348 107.316 27.4369C107.227 43.3216 107.405 59.8583 107.316 75.743ZM223.663 51.9974C223.697 53.7605 223.663 61.742 217.574 68.3456C217.574 68.3456 210.915 75.5843 200.472 75.8806C200.091 75.8912 199.795 75.8912 199.6 75.8912C196.614 75.8891 194.148 75.3303 192.448 74.8138C187.288 73.0148 184.234 69.4971 182.949 67.8123C183.982 66.1593 185.131 63.975 186.037 61.2827C187.273 57.6147 187.608 54.351 187.658 51.9995C194.495 48.5474 201.329 45.0953 208.166 41.6432C207.827 41.3786 201.729 36.8005 194.597 39.4843C189.508 41.3998 185.976 46.2277 185.595 51.7942C185.54 53.9446 185.231 56.9141 184.139 60.2668C183.207 63.1262 181.988 65.3994 180.934 67.0524C176.511 72.4475 169.793 75.8912 162.27 75.8912C161.233 75.8912 158.327 75.8234 155.167 74.8287C148.644 72.7714 144.735 67.916 143.268 65.8756C145.033 61.2573 146.798 56.639 148.564 52.0207C155.938 48.5178 163.312 45.0149 170.686 41.5141C169.367 40.4304 167.837 39.5965 166.165 39.0843C165.778 38.9658 164.336 38.5424 162.27 38.5022C160.964 38.4768 157.347 38.4091 153.77 40.5489C149.091 43.347 147.59 48.0627 147.241 49.2861C145.359 54.26 143.478 59.2339 141.596 64.2078C140.104 68.0091 138.612 71.9438 137.119 75.7451C133.987 75.7896 130.854 75.7007 127.72 75.7451C121.41 59.6847 115.101 43.5015 108.789 27.439H119.776C124.189 38.735 128.6 50.1517 133.013 61.4478C135.064 55.8961 137.115 50.3465 139.168 44.7947C139.452 43.8529 139.793 42.9364 140.184 42.0475L140.235 41.912C140.724 40.8304 141.376 39.6007 142.241 38.316C142.252 38.299 142.263 38.2842 142.273 38.2673C142.368 38.1255 142.468 37.9837 142.57 37.8397C142.599 37.7974 142.629 37.7551 142.661 37.7149C142.826 37.4863 142.997 37.2556 143.177 37.0228C143.226 36.9593 143.274 36.8958 143.323 36.8344C143.37 36.7772 143.41 36.7201 143.456 36.6608C143.503 36.6037 143.552 36.5486 143.598 36.4915C143.685 36.3836 143.776 36.2777 143.865 36.174C143.988 36.028 144.112 35.8862 144.237 35.7465C144.333 35.6406 144.426 35.5348 144.523 35.4311C144.601 35.3464 144.678 35.2618 144.756 35.1792C144.91 35.0141 145.069 34.8533 145.228 34.6924C145.281 34.6395 145.332 34.5908 145.385 34.54C145.522 34.4046 145.66 34.2733 145.801 34.1421C145.85 34.0977 145.897 34.0511 145.945 34.0088C146.314 33.6701 146.693 33.3442 147.082 33.0288C147.112 33.0055 147.139 32.9823 147.169 32.959C147.336 32.8235 147.507 32.6902 147.679 32.5589C147.704 32.5399 147.73 32.5187 147.757 32.4997C147.941 32.36 148.128 32.2245 148.316 32.0891C148.418 32.0171 148.515 31.9515 148.614 31.8816C148.676 31.8393 148.737 31.7949 148.801 31.7525C150.219 30.7916 151.527 30.1122 152.549 29.6444C152.547 29.6593 152.545 29.672 152.543 29.6868C155.519 28.3724 158.81 27.6422 162.273 27.6422C165.964 27.6422 169.426 28.7216 169.426 28.7216C174.449 30.4064 177.567 33.5939 178.978 35.2491C177.905 36.8894 176.652 39.1499 175.668 42.0009C174.616 45.0508 174.22 47.7727 174.079 49.811L152.748 61.0012C153.648 61.9261 155.542 63.6173 158.454 64.4766C163.89 66.0788 168.381 63.4543 169.048 63.0479C174.409 59.7948 175.296 54.025 175.402 53.2525C175.711 51.4428 176.02 49.6353 176.329 47.8257C176.705 46.0118 177.313 43.8359 178.314 41.4718C179.144 39.5118 180.066 37.8482 180.934 36.483C182.545 34.5675 186.3 30.6265 192.446 28.7216C194.707 28.021 197.109 27.6422 199.6 27.6422C210.295 27.6422 219.364 34.6014 222.527 44.2381L222.495 44.2487C211.739 49.8745 200.984 55.5003 190.228 61.1261C190.215 61.1218 190.196 61.1134 190.181 61.107C191.216 62.0743 193.054 63.5368 195.706 64.4512C196.766 64.8174 202.076 66.6461 207.215 63.8395C213.73 60.2816 214.181 52.4355 214.198 51.9974H223.663Z" fill="#FFBC00"/>
<path style="mix-blend-mode:overlay" d="M65.3787 26.6177C62.896 21.9592 59.4439 18.3674 55.0182 15.8423C50.5946 13.3173 45.5784 12.0537 39.9716 12.0537H21.1279V75.8319H40.1028C45.68 75.8022 50.6877 74.5175 55.1283 71.9776C59.5667 69.4377 63.0061 65.8608 65.4444 61.2467C67.8826 56.6326 69.1018 51.3624 69.1018 45.4339V42.4982C69.1018 36.5698 67.8593 31.2784 65.3787 26.6198V26.6177ZM58.1422 51.6206C57.5517 53.2101 55.5452 57.9893 50.3618 61.1959C46.5097 63.5791 42.7739 63.9368 40.9854 63.9897C37.927 63.9241 34.8665 63.8564 31.8081 63.7908V23.6905H40.7865C42.1538 23.627 47.1129 23.5614 51.7587 27.0813C56.7771 30.8847 57.9094 36.2036 58.1422 37.4545C58.5804 39.3763 58.9677 41.8887 58.9402 44.837C58.9148 47.5145 58.555 49.8152 58.1422 51.6206Z" fill="url(#paint7_linear_95_3930)"/>
<path style="mix-blend-mode:overlay" d="M93.6811 40.0155C92.2186 40.4367 89.702 41.3617 87.1939 43.4571C84.7218 45.5228 83.3714 47.7939 82.6941 49.1485V75.7451C78.897 75.7684 75.5042 75.7218 71.7071 75.7451C71.8425 59.8371 71.5716 43.347 71.7071 27.439C75.2375 27.3945 79.1637 27.4834 82.6941 27.439C82.7386 30.3069 82.6497 33.5728 82.6941 36.4407C83.5344 34.9676 85.0033 32.4044 88.121 30.3514C90.1804 28.9968 92.28 27.7924 93.6811 27.439C93.7256 31.4541 93.6367 35.9983 93.6811 40.0155Z" fill="url(#paint8_linear_95_3930)"/>
<path style="mix-blend-mode:overlay" d="M95.4025 17.9081C95.6777 14.4073 98.7848 11.5627 102.419 11.8188C106.038 12.0749 108.724 15.3047 108.508 18.8352C108.294 22.3084 105.329 25.0917 101.89 25.0557C98.1456 25.0176 95.1083 21.6544 95.4025 17.9081Z" fill="url(#paint9_linear_95_3930)"/>
<path style="mix-blend-mode:overlay" d="M107.316 75.7451C103.655 75.7896 99.7264 75.7007 96.0647 75.7451C96.1536 59.727 95.9758 43.4571 96.0647 27.439C99.7264 27.5279 103.655 27.3501 107.316 27.439C107.227 43.3237 107.405 59.8604 107.316 75.7451Z" fill="url(#paint10_linear_95_3930)"/>
<path style="mix-blend-mode:overlay" d="M223.661 52.0016C223.695 53.7647 223.661 61.7462 217.572 68.3499C217.572 68.3499 210.913 75.5885 200.47 75.8848C200.089 75.8954 199.793 75.8954 199.598 75.8954C196.611 75.8933 194.146 75.3345 192.446 74.8181C187.286 73.019 184.232 69.5013 182.947 67.8165C183.98 66.1635 185.129 63.9792 186.035 61.2869C187.271 57.619 187.605 54.3552 187.656 52.0037C194.493 48.5516 201.327 45.0995 208.164 41.6474C207.825 41.3829 201.727 36.8048 194.594 39.4886C189.506 41.404 185.974 46.2319 185.593 51.7984C185.538 53.9489 185.229 56.9184 184.136 60.271C183.205 63.1305 181.986 65.4037 180.932 67.0567C176.508 72.4518 169.79 75.8954 162.268 75.8954C161.231 75.8954 158.325 75.8277 155.165 74.8329C148.642 72.7756 144.733 67.9202 143.266 65.8799C145.031 61.2616 146.796 56.6432 148.561 52.0249C155.935 48.522 163.31 45.0191 170.684 41.5183C169.365 40.4347 167.835 39.6007 166.163 39.0885C165.775 38.97 164.334 38.5467 162.268 38.5065C160.962 38.4811 157.345 38.4133 153.768 40.5532C149.088 43.3513 147.588 48.0669 147.239 49.2903C145.357 54.2642 143.475 59.2381 141.594 64.212C140.102 68.0134 138.609 71.948 137.117 75.7494C133.985 75.7938 130.852 75.7049 127.718 75.7494C121.408 59.689 115.099 43.5058 108.787 27.4432H119.774C124.187 38.7393 128.598 50.156 133.011 61.452C135.062 55.9003 137.113 50.3507 139.166 44.799C139.45 43.8571 139.79 42.9407 140.182 42.0517L140.233 41.9162C140.722 40.8347 141.374 39.605 142.239 38.3202C142.25 38.3033 142.26 38.2885 142.271 38.2715C142.366 38.1297 142.466 37.9879 142.567 37.844C142.597 37.8017 142.627 37.7593 142.658 37.7191C142.823 37.4905 142.995 37.2598 143.175 37.027C143.223 36.9635 143.272 36.9 143.321 36.8386C143.367 36.7815 143.408 36.7243 143.454 36.6651C143.501 36.6079 143.549 36.5529 143.596 36.4957C143.683 36.3878 143.774 36.282 143.863 36.1783C143.985 36.0322 144.11 35.8904 144.235 35.7507C144.33 35.6449 144.424 35.5391 144.521 35.4353C144.599 35.3507 144.675 35.266 144.754 35.1835C144.908 35.0184 145.067 34.8575 145.226 34.6967C145.279 34.6438 145.329 34.5951 145.382 34.5443C145.52 34.4088 145.657 34.2776 145.799 34.1464C145.848 34.1019 145.895 34.0554 145.943 34.013C146.312 33.6744 146.69 33.3484 147.08 33.0331C147.109 33.0098 147.137 32.9865 147.167 32.9632C147.334 32.8278 147.505 32.6944 147.677 32.5632C147.702 32.5441 147.727 32.523 147.755 32.5039C147.939 32.3642 148.125 32.2288 148.314 32.0933C148.415 32.0213 148.513 31.9557 148.612 31.8859C148.674 31.8436 148.735 31.7991 148.798 31.7568C150.217 30.7959 151.525 30.1164 152.547 29.6487C152.545 29.6635 152.543 29.6762 152.541 29.691C155.516 28.3766 158.808 27.6464 162.27 27.6464C165.962 27.6464 169.424 28.7259 169.424 28.7259C174.447 30.4106 177.565 33.5982 178.976 35.2533C177.903 36.8937 176.65 39.1541 175.666 42.0051C174.614 45.0551 174.218 47.777 174.076 49.8152L152.746 61.0055C153.645 61.9304 155.54 63.6215 158.452 64.4808C163.887 66.0831 168.379 63.4585 169.045 63.0522C174.407 59.799 175.294 54.0293 175.399 53.2567C175.708 51.4471 176.017 49.6395 176.326 47.8299C176.703 46.016 177.311 43.8402 178.312 41.476C179.141 39.5161 180.064 37.8525 180.932 36.4873C182.543 34.5718 186.297 30.6308 192.444 28.7259C194.704 28.0253 197.107 27.6464 199.598 27.6464C210.293 27.6464 219.362 34.6057 222.524 44.2423L222.493 44.2529C211.736 49.8787 200.982 55.5045 190.226 61.1303C190.213 61.1261 190.194 61.1176 190.179 61.1113C191.214 62.0785 193.051 63.5411 195.703 64.4554C196.764 64.8216 202.074 66.6503 207.213 63.8438C213.728 60.2858 214.179 52.4398 214.196 52.0016H223.661Z" fill="url(#paint11_linear_95_3930)"/>
<path d="M65.3787 26.6178C62.896 21.9592 59.4439 18.3674 55.0182 15.8424C50.5946 13.3173 45.5784 12.0538 39.9716 12.0538H21.1279V75.8319H40.1028C45.68 75.8023 50.6877 74.5175 55.1283 71.9777C59.5667 69.4378 63.0061 65.8608 65.4444 61.2467C67.8826 56.6326 69.1018 51.3624 69.1018 45.4339V42.4983C69.1018 36.5698 67.8593 31.2784 65.3787 26.6199V26.6178ZM58.1422 51.6206C57.5517 53.2102 55.5452 57.9893 50.3618 61.1959C46.5097 63.5792 42.7739 63.9369 40.9854 63.9898C37.927 63.9242 34.8665 63.8564 31.8081 63.7908V23.6906H40.7865C42.1538 23.6271 47.1129 23.5615 51.7587 27.0813C56.7771 30.8847 57.9094 36.2036 58.1422 37.4545C58.5804 39.3764 58.9677 41.8887 58.9402 44.8371C58.9148 47.5145 58.555 49.8152 58.1422 51.6206ZM93.6813 40.0134C92.2188 40.4346 89.7022 41.3596 87.1941 43.455C84.7219 45.5207 83.3716 47.7918 82.6943 49.1464V75.743C78.8972 75.7663 75.5043 75.7197 71.7072 75.743C71.8427 59.835 71.5718 43.3449 71.7072 27.4369C75.2377 27.3924 79.1639 27.4813 82.6943 27.4369C82.7387 30.3048 82.6498 33.5707 82.6943 36.4386C83.5346 34.9655 85.0034 32.4023 88.1211 30.3493C90.1805 28.9947 92.2802 27.7903 93.6813 27.4369C93.7258 31.452 93.6369 35.9962 93.6813 40.0134ZM95.4021 17.906C95.6772 14.4052 98.7843 11.5606 102.418 11.8167C106.038 12.0728 108.724 15.3027 108.508 18.8331C108.294 22.3063 105.329 25.0896 101.889 25.0536C98.1451 25.0155 95.1079 21.6523 95.4021 17.906ZM107.316 75.743C103.655 75.7875 99.7262 75.6986 96.0646 75.743C96.1535 59.7249 95.9757 43.455 96.0646 27.4369C99.7262 27.5258 103.655 27.348 107.316 27.4369C107.227 43.3216 107.405 59.8583 107.316 75.743ZM223.663 51.9974C223.697 53.7605 223.663 61.742 217.574 68.3456C217.574 68.3456 210.915 75.5843 200.472 75.8806C200.091 75.8912 199.795 75.8912 199.6 75.8912C196.614 75.8891 194.148 75.3303 192.448 74.8138C187.288 73.0148 184.234 69.4971 182.949 67.8123C183.982 66.1593 185.131 63.975 186.037 61.2827C187.273 57.6147 187.608 54.351 187.658 51.9995C194.495 48.5474 201.329 45.0953 208.166 41.6432C207.827 41.3786 201.729 36.8005 194.597 39.4843C189.508 41.3998 185.976 46.2277 185.595 51.7942C185.54 53.9446 185.231 56.9141 184.139 60.2668C183.207 63.1262 181.988 65.3994 180.934 67.0524C176.511 72.4475 169.793 75.8912 162.27 75.8912C161.233 75.8912 158.327 75.8234 155.167 74.8287C148.644 72.7714 144.735 67.916 143.268 65.8756C145.033 61.2573 146.798 56.639 148.564 52.0207C155.938 48.5178 163.312 45.0149 170.686 41.5141C169.367 40.4304 167.837 39.5965 166.165 39.0843C165.778 38.9658 164.336 38.5424 162.27 38.5022C160.964 38.4768 157.347 38.4091 153.77 40.5489C149.091 43.347 147.59 48.0627 147.241 49.2861C145.359 54.26 143.478 59.2339 141.596 64.2078C140.104 68.0091 138.612 71.9438 137.119 75.7451C133.987 75.7896 130.854 75.7007 127.72 75.7451C121.41 59.6847 115.101 43.5015 108.789 27.439H119.776C124.189 38.735 128.6 50.1517 133.013 61.4478C135.064 55.8961 137.115 50.3465 139.168 44.7947C139.452 43.8529 139.793 42.9364 140.184 42.0475L140.235 41.912C140.724 40.8304 141.376 39.6007 142.241 38.316C142.252 38.299 142.263 38.2842 142.273 38.2673C142.368 38.1255 142.468 37.9837 142.57 37.8397C142.599 37.7974 142.629 37.7551 142.661 37.7149C142.826 37.4863 142.997 37.2556 143.177 37.0228C143.226 36.9593 143.274 36.8958 143.323 36.8344C143.37 36.7772 143.41 36.7201 143.456 36.6608C143.503 36.6037 143.552 36.5486 143.598 36.4915C143.685 36.3836 143.776 36.2777 143.865 36.174C143.988 36.028 144.112 35.8862 144.237 35.7465C144.333 35.6406 144.426 35.5348 144.523 35.4311C144.601 35.3464 144.678 35.2618 144.756 35.1792C144.91 35.0141 145.069 34.8533 145.228 34.6924C145.281 34.6395 145.332 34.5908 145.385 34.54C145.522 34.4046 145.66 34.2733 145.801 34.1421C145.85 34.0977 145.897 34.0511 145.945 34.0088C146.314 33.6701 146.693 33.3442 147.082 33.0288C147.112 33.0055 147.139 32.9823 147.169 32.959C147.336 32.8235 147.507 32.6902 147.679 32.5589C147.704 32.5399 147.73 32.5187 147.757 32.4997C147.941 32.36 148.128 32.2245 148.316 32.0891C148.418 32.0171 148.515 31.9515 148.614 31.8816C148.676 31.8393 148.737 31.7949 148.801 31.7525C150.219 30.7916 151.527 30.1122 152.549 29.6444C152.547 29.6593 152.545 29.672 152.543 29.6868C155.519 28.3724 158.81 27.6422 162.273 27.6422C165.964 27.6422 169.426 28.7216 169.426 28.7216C174.449 30.4064 177.567 33.5939 178.978 35.2491C177.905 36.8894 176.652 39.1499 175.668 42.0009C174.616 45.0508 174.22 47.7727 174.079 49.811L152.748 61.0012C153.648 61.9261 155.542 63.6173 158.454 64.4766C163.89 66.0788 168.381 63.4543 169.048 63.0479C174.409 59.7948 175.296 54.025 175.402 53.2525C175.711 51.4428 176.02 49.6353 176.329 47.8257C176.705 46.0118 177.313 43.8359 178.314 41.4718C179.144 39.5118 180.066 37.8482 180.934 36.483C182.545 34.5675 186.3 30.6265 192.446 28.7216C194.707 28.021 197.109 27.6422 199.6 27.6422C210.295 27.6422 219.364 34.6014 222.527 44.2381L222.495 44.2487C211.739 49.8745 200.984 55.5003 190.228 61.1261C190.215 61.1218 190.196 61.1134 190.181 61.107C191.216 62.0743 193.054 63.5368 195.706 64.4512C196.766 64.8174 202.076 66.6461 207.215 63.8395C213.73 60.2816 214.181 52.4355 214.198 51.9974H223.663Z" fill="#07A4FC"/>
<defs>
<linearGradient id="paint0_linear_95_3930" x1="14.9072" y1="44.0328" x2="229.354" y2="44.0328" gradientUnits="userSpaceOnUse">
<stop stop-color="#FC0FC0"/>
<stop offset="0.14" stop-color="#C020D0"/>
<stop offset="0.26" stop-color="#8620D0"/>
<stop offset="0.31" stop-color="#6320D0"/>
<stop offset="0.43" stop-color="#3627D5"/>
<stop offset="0.44" stop-color="#223DE4"/>
<stop offset="0.45" stop-color="#124EF0"/>
<stop offset="0.46" stop-color="#085AF8"/>
<stop offset="0.47" stop-color="#0161FD"/>
<stop offset="0.51" stop-color="#0063FF"/>
<stop offset="0.52" stop-color="#006BFF"/>
<stop offset="0.56" stop-color="#038AFF"/>
<stop offset="0.6" stop-color="#06A1FF"/>
<stop offset="0.64" stop-color="#07B2FF"/>
<stop offset="0.69" stop-color="#08BCFF"/>
<stop offset="0.74" stop-color="#09C0FF"/>
<stop offset="0.99" stop-color="#09DEFF"/>
</linearGradient>
<linearGradient id="paint1_linear_95_3930" x1="122.13" y1="141.949" x2="122.13" y2="14.2338" gradientUnits="userSpaceOnUse">
<stop/>
<stop offset="1" stop-opacity="0"/>
</linearGradient>
<linearGradient id="paint2_linear_95_3930" x1="57.6808" y1="12.2357" x2="10.2086" y2="92.849" gradientUnits="userSpaceOnUse">
<stop stop-opacity="0"/>
<stop offset="1"/>
</linearGradient>
<linearGradient id="paint3_linear_95_3930" x1="82.6814" y1="28.7682" x2="82.6814" y2="75.8404" gradientUnits="userSpaceOnUse">
<stop stop-opacity="0"/>
<stop offset="1"/>
</linearGradient>
<linearGradient id="paint4_linear_95_3930" x1="95.3835" y1="18.4309" x2="108.521" y2="18.4309" gradientUnits="userSpaceOnUse">
<stop stop-opacity="0"/>
<stop offset="1"/>
</linearGradient>
<linearGradient id="paint5_linear_95_3930" x1="101.691" y1="13.6793" x2="101.691" y2="76.4245" gradientUnits="userSpaceOnUse">
<stop stop-opacity="0"/>
<stop offset="1"/>
</linearGradient>
<linearGradient id="paint6_linear_95_3930" x1="108.789" y1="51.6672" x2="223.665" y2="51.6672" gradientUnits="userSpaceOnUse">
<stop stop-opacity="0"/>
<stop offset="1"/>
</linearGradient>
<linearGradient id="paint7_linear_95_3930" x1="57.6808" y1="12.2357" x2="10.2086" y2="92.849" gradientUnits="userSpaceOnUse">
<stop stop-opacity="0"/>
<stop offset="1"/>
</linearGradient>
<linearGradient id="paint8_linear_95_3930" x1="82.6814" y1="28.7682" x2="82.6814" y2="75.8404" gradientUnits="userSpaceOnUse">
<stop stop-opacity="0"/>
<stop offset="1"/>
</linearGradient>
<linearGradient id="paint9_linear_95_3930" x1="95.3835" y1="18.4309" x2="108.521" y2="18.4309" gradientUnits="userSpaceOnUse">
<stop stop-opacity="0"/>
<stop offset="1"/>
</linearGradient>
<linearGradient id="paint10_linear_95_3930" x1="101.691" y1="13.6793" x2="101.691" y2="76.4245" gradientUnits="userSpaceOnUse">
<stop stop-opacity="0"/>
<stop offset="1"/>
</linearGradient>
<linearGradient id="paint11_linear_95_3930" x1="108.789" y1="51.6672" x2="223.665" y2="51.6672" gradientUnits="userSpaceOnUse">
<stop stop-opacity="0"/>
<stop offset="1"/>
</linearGradient>
</defs>
</svg>
