<svg width="16" height="16" viewBox="0 0 16 16" fill="none" xmlns="http://www.w3.org/2000/svg">
<path fill-rule="evenodd" clip-rule="evenodd" d="M8.77092 5.18811e-07H7.16091C6.71401 -1.24581e-05 6.3344 -2.34783e-05 6.02607 0.0321493C5.70091 0.066079 5.38975 0.140787 5.10857 0.334642C4.91491 0.468159 4.74752 0.636638 4.61485 0.831548C4.42224 1.11454 4.34801 1.4277 4.3143 1.75497C4.29422 1.94989 4.28676 2.17308 4.28399 2.4236C4.2312 2.42976 4.17943 2.43638 4.12867 2.44349C3.37484 2.54918 2.74538 2.7758 2.26946 3.30576C1.79354 3.83571 1.63295 4.48885 1.60443 5.25432C1.5769 5.99351 1.67114 6.92987 1.78847 8.09561L2.1112 11.3027C2.20847 12.2694 2.28712 13.051 2.42905 13.6638C2.57669 14.3012 2.80831 14.8315 3.26236 15.2445C3.71641 15.6576 4.26399 15.836 4.90898 15.9197C5.52894 16 6.30957 16 7.27497 16H8.87539C9.8671 16 10.6683 16 11.3029 15.9167C11.9627 15.83 12.5216 15.645 12.9796 15.2161C13.4376 14.7873 13.6614 14.2396 13.7948 13.5835C13.9232 12.9525 13.981 12.1483 14.0526 11.1527L14.2831 7.94537C14.3649 6.80734 14.4307 5.89228 14.3841 5.17071C14.3358 4.42286 14.1628 3.78727 13.6891 3.27478C13.2154 2.76229 12.598 2.54275 11.8604 2.44029C11.7914 2.43071 11.7205 2.42206 11.6477 2.41424C11.6449 2.16752 11.6373 1.94746 11.6175 1.75497C11.5838 1.4277 11.5096 1.11454 11.317 0.831548C11.1843 0.636638 11.0169 0.468159 10.8232 0.334642C10.5421 0.140787 10.2309 0.066079 9.90575 0.0321493C9.59742 -2.34783e-05 9.21782 -1.24581e-05 8.77092 5.18811e-07ZM10.4835 2.35009C10.4804 2.16003 10.474 2.00653 10.4605 1.8757C10.4365 1.64305 10.3954 1.54914 10.3573 1.49317C10.3059 1.41759 10.241 1.35226 10.1659 1.30049C10.1102 1.26215 10.0169 1.22076 9.78579 1.19664C9.54458 1.17147 9.22587 1.17074 8.74139 1.17074H7.19043C6.70595 1.17074 6.38724 1.17147 6.14603 1.19664C5.91488 1.22076 5.82157 1.26215 5.76596 1.30049C5.69086 1.35226 5.62595 1.41759 5.57451 1.49317C5.53642 1.54914 5.49529 1.64305 5.47133 1.8757C5.45779 2.00707 5.45137 2.16128 5.44832 2.35242C5.90063 2.34145 6.40238 2.34146 6.9559 2.34147H9.10334C9.60648 2.34146 10.0659 2.34145 10.4835 2.35009ZM6.39657 6.39025C6.71766 6.39025 6.97796 6.65232 6.97796 6.97561V10.878C6.97796 11.2013 6.71766 11.4634 6.39657 11.4634C6.07547 11.4634 5.81517 11.2013 5.81517 10.878V6.97561C5.81517 6.65232 6.07547 6.39025 6.39657 6.39025ZM10.0799 6.97561C10.0799 6.65232 9.81961 6.39025 9.49852 6.39025C9.17743 6.39025 8.91713 6.65232 8.91713 6.97561V10.878C8.91713 11.2013 9.17743 11.4634 9.49852 11.4634C9.81961 11.4634 10.0799 11.2013 10.0799 10.878V6.97561Z" fill="#D8394C"/>
</svg>
