<svg width="12" height="12" viewBox="0 0 12 12" fill="none" xmlns="http://www.w3.org/2000/svg">
<path d="M10.3906 4.8144L3.16369 0.737132C2.92768 0.602257 2.66015 0.5323 2.38833 0.534377C2.1165 0.536454 1.85008 0.610492 1.61616 0.748958C1.38826 0.8793 1.19892 1.06764 1.06737 1.29485C0.935824 1.52205 0.866758 1.78003 0.86719 2.04257V10.1971C0.866758 10.4596 0.935824 10.7176 1.06737 10.9448C1.19892 11.172 1.38826 11.3604 1.61616 11.4907C1.8501 11.6291 2.11652 11.7031 2.38833 11.7052C2.66014 11.7073 2.92766 11.6373 3.16369 11.5025L10.3906 7.42527C10.6236 7.29616 10.8179 7.107 10.9532 6.87744C11.0884 6.64787 11.1598 6.38628 11.1598 6.11984C11.1598 5.85339 11.0884 5.5918 10.9532 5.36224C10.8179 5.13267 10.6236 4.94351 10.3906 4.8144Z" fill="white"/>
</svg>
