<svg width="14" height="10" viewBox="0 0 14 10" fill="none" xmlns="http://www.w3.org/2000/svg">
<path fill-rule="evenodd" clip-rule="evenodd" d="M0.706188 0.892253C0.706188 0.524066 1.02553 0.225586 1.41947 0.225586H12.8251C13.219 0.225586 13.5384 0.524066 13.5384 0.892253V8.44173C13.5384 9.17813 12.8997 9.77506 12.1118 9.77506H2.12579C1.33792 9.77506 0.699219 9.17813 0.699219 8.44173V1.1084C0.699219 1.07665 0.701594 1.04543 0.706188 1.01486V0.892253ZM2.12579 2.37476V8.44173H12.1118V2.37499L8.63204 5.62733C7.79635 6.40839 6.44146 6.40839 5.60581 5.62733L2.12579 2.37476ZM3.24731 1.53735H10.9905L7.62331 4.68453C7.34477 4.94486 6.89312 4.94486 6.61458 4.68453L3.24731 1.53735Z" fill="white"/>
</svg>
