<svg width="16" height="16" viewBox="0 0 16 16" fill="none" xmlns="http://www.w3.org/2000/svg">
<path fill-rule="evenodd" clip-rule="evenodd" d="M5.8457 0.799805H5.75734C4.7585 0.799791 3.94773 0.799779 3.30877 0.885685C2.64306 0.975187 2.07403 1.16779 1.62091 1.62091C1.16779 2.07403 0.975187 2.64306 0.885685 3.30877C0.799779 3.94773 0.799791 4.75848 0.799805 5.75731V6.57846C0.799791 7.5773 0.799779 8.38807 0.885685 9.02703C0.975187 9.69274 1.16779 10.2618 1.62091 10.7149C2.07403 11.168 2.64306 11.3606 3.30877 11.4501C3.82615 11.5197 4.45553 11.5329 5.20545 11.5354C5.21556 11.9692 5.23691 12.3536 5.28225 12.6908C5.37175 13.3565 5.56436 13.9256 6.01748 14.3787C6.4706 14.8318 7.03963 15.0244 7.70534 15.1139C8.34431 15.1998 9.15507 15.1998 10.1539 15.1998H10.2422C11.2411 15.1998 12.0519 15.1998 12.6908 15.1139C13.3565 15.0244 13.9256 14.8318 14.3787 14.3787C14.8318 13.9256 15.0244 13.3565 15.1139 12.6908C15.1998 12.0519 15.1998 11.2411 15.1998 10.2423V9.42113C15.1998 8.4223 15.1998 7.61154 15.1139 6.97258C15.0244 6.30687 14.8318 5.73784 14.3787 5.28472C13.9256 4.8316 13.3565 4.639 12.6908 4.5495C12.1735 4.47994 11.5441 4.46674 10.7942 4.46421C10.7841 4.03039 10.7627 3.646 10.7174 3.30877C10.6279 2.64306 10.4352 2.07403 9.98213 1.62091C9.52901 1.16779 8.95998 0.975187 8.29427 0.885685C7.65531 0.799779 6.84454 0.799791 5.8457 0.799805ZM3.47004 2.08517C4.01896 2.01137 4.7481 2.01009 5.80152 2.01009C6.85494 2.01009 7.58408 2.01137 8.13301 2.08517C8.66449 2.15663 8.93556 2.28593 9.12633 2.47671C9.31711 2.66748 9.44641 2.93855 9.51787 3.47003C9.55525 3.7481 9.57409 4.07318 9.58352 4.46428C8.84176 4.46696 8.21847 4.48051 7.70534 4.5495C7.03963 4.639 6.4706 4.8316 6.01748 5.28472C5.56436 5.73784 5.37176 6.30687 5.28225 6.97258C5.19635 7.61155 5.19636 8.42232 5.19637 9.42116L5.19638 10.325C4.45769 10.3222 3.90653 10.3093 3.47004 10.2506C2.93855 10.1792 2.66748 10.0499 2.47671 9.85909C2.28593 9.66832 2.15663 9.39725 2.08517 8.86577C2.01137 8.31684 2.01009 7.5877 2.01009 6.53428V5.80152C2.01009 4.7481 2.01137 4.01896 2.08517 3.47003C2.15663 2.93855 2.28593 2.66748 2.47671 2.47671C2.66748 2.28593 2.93855 2.15663 3.47004 2.08517Z" fill="#201F29"/>
</svg>
