<svg width="21" height="22" viewBox="0 0 21 22" fill="none" xmlns="http://www.w3.org/2000/svg">
<g clip-path="url(#clip0_995_7915)">
<path d="M16.625 0.5H4.375C3.2151 0.501389 2.10311 0.962772 1.28294 1.78294C0.462772 2.60311 0.00138938 3.7151 0 4.875L0 17.125C0.00138938 18.2849 0.462772 19.3969 1.28294 20.2171C2.10311 21.0372 3.2151 21.4986 4.375 21.5V18.875C4.375 17.2505 5.02031 15.6926 6.16897 14.544C7.31763 13.3953 8.87555 12.75 10.5 12.75C12.1245 12.75 13.6824 13.3953 14.831 14.544C15.9797 15.6926 16.625 17.2505 16.625 18.875V21.5C17.7849 21.4986 18.8969 21.0372 19.7171 20.2171C20.5372 19.3969 20.9986 18.2849 21 17.125V4.875C20.9986 3.7151 20.5372 2.60311 19.7171 1.78294C18.8969 0.962772 17.7849 0.501389 16.625 0.5ZM10.5 11C9.80777 11 9.13108 10.7947 8.5555 10.4101C7.97993 10.0256 7.53133 9.47893 7.26642 8.83939C7.00151 8.19985 6.9322 7.49612 7.06725 6.81718C7.2023 6.13825 7.53564 5.51461 8.02513 5.02513C8.51461 4.53564 9.13825 4.2023 9.81718 4.06725C10.4961 3.9322 11.1999 4.00151 11.8394 4.26642C12.4789 4.53133 13.0256 4.97993 13.4101 5.5555C13.7947 6.13108 14 6.80777 14 7.5C14 8.42826 13.6313 9.3185 12.9749 9.97487C12.3185 10.6313 11.4283 11 10.5 11Z" fill="#99B2C6"/>
<path d="M10.5 9.25C11.4665 9.25 12.25 8.4665 12.25 7.5C12.25 6.5335 11.4665 5.75 10.5 5.75C9.5335 5.75 8.75 6.5335 8.75 7.5C8.75 8.4665 9.5335 9.25 10.5 9.25Z" fill="#99B2C6"/>
<path d="M10.5 14.5C9.3401 14.5014 8.22811 14.9628 7.40794 15.7829C6.58777 16.6031 6.12639 17.7151 6.125 18.875V21.5H14.875V18.875C14.8736 17.7151 14.4122 16.6031 13.5921 15.7829C12.7719 14.9628 11.6599 14.5014 10.5 14.5Z" fill="#99B2C6"/>
</g>
<defs>
<clipPath id="clip0_995_7915">
<rect width="21" height="21" fill="white" transform="translate(0 0.5)"/>
</clipPath>
</defs>
</svg>
