<svg width="18" height="17" viewBox="0 0 18 17" fill="none" xmlns="http://www.w3.org/2000/svg">
<path d="M16.2125 9.70972L14.423 10.1004C14.1979 10.1529 13.9826 10.2358 13.7841 10.3464L12.3286 9.52774C12.4858 8.99873 12.4858 8.44082 12.3286 7.91182L13.7841 7.09319C13.9826 7.20378 14.1979 7.28669 14.423 7.33919C14.423 7.33919 16.3821 7.75717 16.4665 7.75717C17.0694 7.7519 17.5534 7.29993 17.5476 6.74767C17.5429 6.29154 17.2017 5.89615 16.7183 5.78657L14.9259 5.39392C14.8852 5.38485 14.8504 5.36068 14.8298 5.32726C14.8078 5.2951 14.801 5.25612 14.8109 5.21928L15.2373 3.57935C15.4118 3.05072 15.0854 2.49263 14.5083 2.33283C13.9312 2.17303 13.322 2.47201 13.1475 3.00064C13.1346 3.03983 13.1243 3.07969 13.1167 3.12005L12.6902 4.75997C12.6402 4.96549 12.6238 5.17666 12.6415 5.38661L11.186 6.20856C10.8119 5.91342 10.3757 5.69151 9.90447 5.5566V3.98666C10.111 3.89079 10.3004 3.7667 10.4663 3.61867L11.7682 2.42672C12.1945 2.03608 12.1943 1.40289 11.7678 1.01247C11.3414 0.622011 10.6501 0.622168 10.2239 1.01281L8.92272 2.20539C8.8625 2.26062 8.76483 2.26068 8.70453 2.20551L7.40174 1.01278C6.97529 0.622137 6.28392 0.622137 5.85747 1.01278C5.43102 1.40342 5.43102 2.03674 5.85747 2.42738L7.1594 3.61933C7.32528 3.76711 7.51473 3.89097 7.72121 3.98666V5.5566C7.25097 5.69274 6.81609 5.91552 6.44329 6.21123L4.98415 5.38661C5.00237 5.17512 4.98593 4.96232 4.9354 4.7553L4.50895 3.12005C4.37856 2.58087 3.79568 2.2406 3.20708 2.36004C2.61849 2.47948 2.24702 3.01341 2.37741 3.55258C2.37991 3.56288 2.38258 3.57314 2.38543 3.58334L2.81188 5.22326C2.82181 5.26014 2.81499 5.29911 2.79297 5.33125C2.77241 5.3647 2.7376 5.38883 2.6969 5.3979L0.907371 5.78654C0.320932 5.9148 -0.0409761 6.45422 0.0990389 6.99138C0.216203 7.44099 0.654542 7.75845 1.15914 7.75914C1.24355 7.75914 3.20263 7.34117 3.20263 7.34117C3.42774 7.28867 3.64309 7.20576 3.84159 7.09517L5.29707 7.91379C5.13989 8.4428 5.13989 9.00071 5.29707 9.52971L3.84159 10.3483C3.64309 10.2378 3.42774 10.1548 3.20263 10.1023L1.4131 9.7117C0.836901 9.5492 0.226001 9.84538 0.0486102 10.3732C-0.128781 10.901 0.194552 11.4606 0.770748 11.6231C0.815524 11.6357 0.861156 11.6457 0.907303 11.653L2.69684 12.0436C2.73754 12.0527 2.77234 12.0768 2.7929 12.1103C2.81493 12.1424 2.82174 12.1814 2.81181 12.2182L2.38539 13.8582C2.24473 14.3954 2.60605 14.9353 3.19246 15.0641C3.77886 15.193 4.36828 14.862 4.50895 14.3248L4.9354 12.6849C4.986 12.4777 5.00244 12.2647 4.98415 12.0529L6.44329 11.231C6.81609 11.5267 7.25097 11.7495 7.72121 11.8856V13.4529C7.5148 13.5493 7.32542 13.6735 7.1594 13.8215L5.85747 15.0121C5.43102 15.4028 5.43102 16.0361 5.85747 16.4267C6.28392 16.8174 6.97529 16.8174 7.40174 16.4267L8.70296 15.2341C8.76318 15.1789 8.86085 15.1788 8.92115 15.234L10.2225 16.4267C10.6489 16.8174 11.3403 16.8174 11.7668 16.4267C12.1932 16.0361 12.1932 15.4028 11.7668 15.0121L10.4648 13.8202C10.2992 13.6728 10.1103 13.549 9.90447 13.4529V11.8829C10.3747 11.7468 10.8096 11.524 11.1824 11.2283L12.6379 12.0502C12.6196 12.2617 12.6361 12.4745 12.6866 12.6816L13.1131 14.3215C13.2537 14.8587 13.8432 15.1896 14.4296 15.0608C15.016 14.9319 15.3773 14.392 15.2366 13.8548L14.8102 12.2149C14.8002 12.178 14.8071 12.1391 14.8291 12.1069C14.8496 12.0735 14.8844 12.0493 14.9251 12.0403L16.7147 11.6496C17.3011 11.5208 17.6624 10.9808 17.5217 10.4437C17.3811 9.90652 16.7917 9.57553 16.2052 9.70439L16.2125 9.70972ZM8.81282 10.053C8.00898 10.053 7.35735 9.45612 7.35735 8.71978C7.35735 7.98343 8.00898 7.38652 8.81282 7.38652C9.61667 7.38652 10.2683 7.98343 10.2683 8.71978C10.2683 9.45612 9.61667 10.053 8.81282 10.053Z" fill="white"/>
</svg>
