<svg width="21" height="20" viewBox="0 0 21 20" fill="none" xmlns="http://www.w3.org/2000/svg">
<g clip-path="url(#clip0_43_973)">
<path d="M10.4999 15.2909C13.3007 15.2909 15.5711 13.0204 15.5711 10.2197C15.5711 7.4189 13.3007 5.14844 10.4999 5.14844C7.69917 5.14844 5.42871 7.4189 5.42871 10.2197C5.42871 13.0204 7.69917 15.2909 10.4999 15.2909Z" fill="white"/>
<path d="M5.29877 5.82699C5.41044 5.93869 5.55685 5.99453 5.70321 5.99453C5.84961 5.99453 5.99598 5.93869 6.10768 5.82699C6.33106 5.60361 6.33106 5.24145 6.10768 5.01808L4.41491 3.32527C4.19154 3.10186 3.82934 3.10186 3.60601 3.32527C3.38263 3.54865 3.38263 3.91081 3.60601 4.13418L5.29877 5.82699Z" fill="white"/>
<path d="M15.701 14.6124C15.4777 14.389 15.1155 14.389 14.8921 14.6124C14.6688 14.8358 14.6688 15.1979 14.8921 15.4213L16.5849 17.1141C16.6966 17.2258 16.843 17.2816 16.9894 17.2816C17.1358 17.2816 17.2822 17.2258 17.3939 17.1141C17.6173 16.8907 17.6173 16.5286 17.3939 16.3052L15.701 14.6124Z" fill="white"/>
<path d="M4.28479 10.22C4.28479 9.90408 4.0287 9.64795 3.71278 9.64795H1.32201C1.00609 9.64795 0.75 9.90408 0.75 10.22C0.75 10.5358 1.00609 10.792 1.32201 10.792H3.71282C4.0287 10.792 4.28479 10.5358 4.28479 10.22Z" fill="white"/>
<path d="M19.6777 9.64795H17.2869C16.971 9.64795 16.7148 9.90404 16.7148 10.22C16.7148 10.5359 16.9709 10.792 17.2869 10.792H19.6777C19.9935 10.792 20.2497 10.5359 20.2497 10.22C20.2497 9.90404 19.9936 9.64795 19.6777 9.64795Z" fill="white"/>
<path d="M5.29881 14.6124L3.60601 16.3052C3.38263 16.5286 3.38263 16.8907 3.60601 17.1141C3.71768 17.2258 3.86408 17.2816 4.01048 17.2816C4.15688 17.2816 4.30325 17.2258 4.41495 17.1141L6.10776 15.4213C6.33113 15.1979 6.33113 14.8358 6.10776 14.6124C5.88435 14.389 5.52215 14.389 5.29881 14.6124Z" fill="white"/>
<path d="M15.2966 5.99453C15.443 5.99453 15.5893 5.93869 15.701 5.82699L17.3939 4.13418C17.6172 3.91081 17.6172 3.54865 17.3939 3.32527C17.1705 3.10186 16.8083 3.10186 16.5849 3.32527L14.8921 5.01808C14.6688 5.24145 14.6688 5.60361 14.8921 5.82699C15.0038 5.93869 15.1502 5.99453 15.2966 5.99453Z" fill="white"/>
<path d="M10.4997 16.4351C10.1839 16.4351 9.92773 16.6911 9.92773 17.007V19.3978C9.92773 19.7137 10.1838 19.9699 10.4997 19.9699C10.8157 19.9699 11.0718 19.7138 11.0718 19.3978V17.007C11.0718 16.6911 10.8156 16.4351 10.4997 16.4351Z" fill="white"/>
<path d="M10.4997 4.00452C10.8156 4.00452 11.0718 3.74843 11.0718 3.43251V1.04174C11.0718 0.725816 10.8156 0.469727 10.4997 0.469727C10.1839 0.469727 9.92773 0.725816 9.92773 1.04174V3.43251C9.92773 3.74839 10.1839 4.00452 10.4997 4.00452Z" fill="white"/>
</g>
<defs>
<clipPath id="clip0_43_973">
<rect width="19.5" height="19.5" fill="white" transform="translate(0.75 0.469727)"/>
</clipPath>
</defs>
</svg>
