<svg width="19" height="19" viewBox="0 0 19 19" fill="none" xmlns="http://www.w3.org/2000/svg">
<g clip-path="url(#clip0_47_4689)">
<path d="M10.0641 9.29067V5.4197C10.0641 5.21437 9.98254 5.01745 9.83735 4.87226C9.69216 4.72707 9.49524 4.64551 9.28991 4.64551C9.08458 4.64551 8.88767 4.72707 8.74248 4.87226C8.59729 5.01745 8.51572 5.21437 8.51572 5.4197V8.51648H6.19314C5.98781 8.51648 5.79089 8.59804 5.6457 8.74323C5.50051 8.88842 5.41895 9.08534 5.41895 9.29067C5.41895 9.496 5.50051 9.69292 5.6457 9.83811C5.79089 9.9833 5.98781 10.0649 6.19314 10.0649H9.28991C9.49524 10.0649 9.69216 9.9833 9.83735 9.83811C9.98254 9.69292 10.0641 9.496 10.0641 9.29067Z" fill="#07A4FC"/>
<path d="M17.806 1.54849C17.6007 1.54849 17.4038 1.63005 17.2586 1.77524C17.1134 1.92043 17.0318 2.11735 17.0318 2.32268V4.16062C16.2252 2.94325 15.1429 1.9332 13.8728 1.21241C12.6027 0.491624 11.1806 0.0804034 9.72181 0.0121164C8.26304 -0.0561706 6.80872 0.220399 5.47685 0.819386C4.14498 1.41837 2.97308 2.3229 2.05622 3.45959C1.13937 4.59627 0.503397 5.93308 0.199904 7.36156C-0.103588 8.79004 -0.0660503 10.27 0.309472 11.6812C0.684994 13.0925 1.38792 14.3953 2.36122 15.4841C3.33452 16.5728 4.55078 17.4168 5.91131 17.9474C6.00122 17.9821 6.09674 18 6.19311 18.0001C6.37378 18.0004 6.54885 17.9375 6.68801 17.8223C6.82718 17.707 6.92167 17.5468 6.95512 17.3692C6.98857 17.1917 6.95887 17.0081 6.87117 16.8501C6.78348 16.6921 6.6433 16.5698 6.47492 16.5044C5.31984 16.0577 4.28877 15.3405 3.46825 14.4129C2.64773 13.4853 2.06171 12.3744 1.75939 11.1734C1.45707 9.97246 1.44726 8.7165 1.7308 7.51097C2.01433 6.30544 2.58293 5.18551 3.38886 4.24521C4.1948 3.30491 5.21455 2.57167 6.36251 2.10705C7.51048 1.64242 8.75315 1.45997 9.98622 1.575C11.2193 1.69003 12.4068 2.0992 13.449 2.76815C14.4912 3.43709 15.3577 4.3463 15.9758 5.41945H13.935C13.7297 5.41945 13.5328 5.50102 13.3876 5.64621C13.2424 5.7914 13.1609 5.98832 13.1609 6.19365C13.1609 6.39898 13.2424 6.59589 13.3876 6.74108C13.5328 6.88627 13.7297 6.96784 13.935 6.96784H16.2576C16.8736 6.96784 17.4644 6.72314 17.8999 6.28757C18.3355 5.852 18.5802 5.26125 18.5802 4.64526V2.32268C18.5802 2.11735 18.4986 1.92043 18.3535 1.77524C18.2083 1.63005 18.0113 1.54849 17.806 1.54849Z" fill="#07A4FC"/>
</g>
<defs>
<clipPath id="clip0_47_4689">
<rect width="18.5806" height="18.5806" fill="white"/>
</clipPath>
</defs>
</svg>
