<svg width="16" height="16" viewBox="0 0 16 16" fill="none" xmlns="http://www.w3.org/2000/svg">
<path d="M12.6006 11.184C13.665 9.7616 14.151 7.98882 13.9609 6.2225C13.7707 4.45618 12.9185 2.82747 11.5758 1.66422C10.233 0.500974 8.4995 -0.110439 6.72411 -0.0469443C4.94871 0.0165509 3.26328 0.75024 2.00709 2.00643C0.750896 3.26263 0.017207 4.94806 -0.0462882 6.72345C-0.109783 8.49884 0.50163 10.2324 1.66488 11.5751C2.82812 12.9178 4.45683 13.77 6.22315 13.9602C7.98947 14.1504 9.76226 13.6643 11.1846 12.6L14.5846 16L16.0006 14.5867L12.6006 11.184ZM7.00065 12C6.01174 12 5.04504 11.7067 4.2228 11.1573C3.40055 10.6079 2.75969 9.82704 2.38125 8.91341C2.00281 7.99978 1.9038 6.99445 2.09672 6.02454C2.28965 5.05464 2.76585 4.16372 3.46511 3.46446C4.16438 2.7652 5.05529 2.28899 6.0252 2.09607C6.9951 1.90314 8.00044 2.00216 8.91407 2.38059C9.8277 2.75903 10.6086 3.3999 11.158 4.22214C11.7074 5.04439 12.0006 6.01109 12.0006 6.99999C11.9994 8.3257 11.4722 9.59675 10.5348 10.5342C9.5974 11.4716 8.32635 11.9988 7.00065 12Z" fill="#0D0A19"/>
</svg>
