<svg width="21" height="20" viewBox="0 0 21 20" fill="none" xmlns="http://www.w3.org/2000/svg">
<path d="M13.2711 13.4001C13.1113 12.8919 12.7931 12.4482 12.3629 12.1338C11.9328 11.8195 11.4134 11.6511 10.8807 11.6531H9.15124C8.6185 11.6511 8.09908 11.8195 7.66895 12.1338C7.23883 12.4482 6.92058 12.8919 6.76076 13.4001L6.19987 15.1687C6.01374 16.0852 5.22165 18.1752 6.6773 18.3304V19.1651C6.6773 19.3865 6.76523 19.5988 6.92176 19.7553C7.07829 19.9118 7.29059 19.9998 7.51196 19.9998C7.73333 19.9998 7.94562 19.9118 8.10215 19.7553C8.25868 19.5988 8.34662 19.3865 8.34662 19.1651V18.3304H11.6853V19.1651C11.6853 19.3865 11.7732 19.5988 11.9297 19.7553C12.0863 19.9118 12.2986 19.9998 12.5199 19.9998C12.7413 19.9998 12.9536 19.9118 13.1101 19.7553C13.2667 19.5988 13.3546 19.3865 13.3546 19.1651V18.3304C14.8102 18.1735 14.0223 16.0869 13.8287 15.1679L13.2711 13.4001ZM9.15124 13.3225H10.8807C11.0581 13.3226 11.2309 13.3794 11.374 13.4844C11.517 13.5895 11.6228 13.7374 11.6761 13.9067L12.0191 14.9918H8.01276L8.35831 13.9067C8.41142 13.7378 8.51687 13.5902 8.6594 13.4852C8.80194 13.3801 8.97418 13.3232 9.15124 13.3225ZM20.0319 8.11585V15.9325C20.0307 16.8571 19.7229 17.7552 19.1569 18.4863C18.5909 19.2174 17.7984 19.7403 16.9036 19.9731C16.7797 20.0053 16.6501 20.0087 16.5248 19.9828C16.3995 19.957 16.2817 19.9027 16.1807 19.8241C16.0797 19.7455 15.9981 19.6448 15.9423 19.5297C15.8864 19.4145 15.8578 19.2881 15.8586 19.1601V10.8185C15.8586 10.1544 15.5948 9.51749 15.1252 9.0479C14.6556 8.57831 14.0187 8.3145 13.3546 8.3145H6.6773C6.0132 8.3145 5.3763 8.57831 4.90671 9.0479C4.43712 9.51749 4.17331 10.1544 4.17331 10.8185V19.1601C4.17411 19.2881 4.14548 19.4145 4.08962 19.5297C4.03376 19.6448 3.95218 19.7455 3.85117 19.8241C3.75016 19.9027 3.63244 19.957 3.5071 19.9828C3.38176 20.0087 3.25216 20.0053 3.12831 19.9731C2.23347 19.7403 1.44103 19.2174 0.874986 18.4863C0.308943 17.7552 0.0012327 16.8571 1.97171e-07 15.9325V8.11585C-0.000209655 7.43309 0.167095 6.76072 0.487242 6.15767C0.807389 5.55463 1.2706 5.03935 1.83626 4.65701L7.67889 0.714063C8.3685 0.248663 9.18148 0 10.0134 0C10.8454 0 11.6584 0.248663 12.348 0.714063L18.1906 4.65701C18.7572 5.03878 19.2214 5.55382 19.5424 6.15689C19.8635 6.75997 20.0315 7.43264 20.0319 8.11585Z" fill="white"/>
</svg>
