<svg width="16" height="16" viewBox="0 0 16 16" fill="none" xmlns="http://www.w3.org/2000/svg">
<path fill-rule="evenodd" clip-rule="evenodd" d="M13.0967 8.31985C12.9568 8.31985 12.8107 8.27522 12.6708 8.24335C12.3876 8.18077 12.1094 8.09768 11.8382 7.99474C11.2275 7.77193 10.5476 8.04688 10.2618 8.6322L10.122 8.91906C9.50291 8.57367 8.93403 8.14469 8.43127 7.64413C7.93216 7.13991 7.50443 6.56936 7.16004 5.94847L7.427 5.76998C8.01062 5.48339 8.28477 4.80151 8.06261 4.18906C7.96169 3.9165 7.87888 3.63753 7.81472 3.35398C7.78294 3.21374 7.75752 3.06712 7.73845 2.9205C7.57898 1.99285 6.77011 1.31953 5.8316 1.33321H3.92476C3.37046 1.32799 2.84134 1.56494 2.4752 1.98233C2.10905 2.39973 1.94213 2.95626 2.01792 3.50697C2.71451 9.00083 7.03788 13.321 12.5183 13.9997H12.7598C13.2285 14.0004 13.6811 13.8279 14.031 13.5152C14.4378 13.1503 14.6692 12.6282 14.6666 12.0809V10.1685C14.6506 9.25537 13.993 8.48105 13.0967 8.31985ZM13.3333 12.0342C13.3331 12.2143 13.2551 12.3856 13.1192 12.5045C12.9773 12.6275 12.7894 12.6845 12.6027 12.6612C7.75022 12.0419 3.93649 8.22729 3.33735 3.39384C3.3171 3.20824 3.37399 3.02247 3.49482 2.87969C3.61422 2.74438 3.7863 2.66673 3.96722 2.6665H5.85682C6.15896 2.65981 6.42329 2.86769 6.48669 3.16185C6.51188 3.33323 6.54337 3.50253 6.58116 3.66973C6.65393 4.00027 6.75076 4.32509 6.8709 4.64162L5.98909 5.04918C5.83681 5.11874 5.71864 5.24582 5.66072 5.40232C5.6028 5.55882 5.6099 5.73185 5.68046 5.88312C6.58696 7.81608 8.1478 9.36987 10.0895 10.2723C10.2429 10.335 10.4149 10.335 10.5682 10.2723C10.7269 10.2158 10.8562 10.0983 10.9272 9.94623L11.3178 9.0684C11.6434 9.18432 11.9757 9.28064 12.313 9.35683C12.4809 9.39445 12.651 9.4258 12.8231 9.45088C13.1186 9.51399 13.3275 9.77713 13.3207 10.0779L13.3333 12.0342Z" fill="white"/>
</svg>
