<svg width="16" height="16" viewBox="0 0 16 16" fill="none" xmlns="http://www.w3.org/2000/svg">
<g clip-path="url(#clip0_45_4207)">
<path d="M8.66699 8V4.66667C8.66699 4.48986 8.59675 4.32029 8.47173 4.19526C8.34671 4.07024 8.17714 4 8.00033 4C7.82351 4 7.65395 4.07024 7.52892 4.19526C7.4039 4.32029 7.33366 4.48986 7.33366 4.66667V7.33333H5.33366C5.15685 7.33333 4.98728 7.40357 4.86225 7.5286C4.73723 7.65362 4.66699 7.82319 4.66699 8C4.66699 8.17681 4.73723 8.34638 4.86225 8.47141C4.98728 8.59643 5.15685 8.66667 5.33366 8.66667H8.00033C8.17714 8.66667 8.34671 8.59643 8.47173 8.47141C8.59675 8.34638 8.66699 8.17681 8.66699 8Z" fill="black" fill-opacity="0.26"/>
<path d="M15.3326 1.33369C15.1557 1.33369 14.9862 1.40393 14.8611 1.52895C14.7361 1.65398 14.6659 1.82355 14.6659 2.00036V3.58302C13.9713 2.53474 13.0393 1.66497 11.9456 1.04429C10.8519 0.423614 9.62732 0.0695076 8.37115 0.0107049C7.11499 -0.0480979 5.86266 0.19006 4.71577 0.705854C3.56888 1.22165 2.55974 2.00055 1.77023 2.97936C0.980717 3.95817 0.433073 5.10932 0.171733 6.3394C-0.0896078 7.56948 -0.0572835 8.84384 0.266083 10.0591C0.589449 11.2743 1.19475 12.3962 2.03287 13.3338C2.87099 14.2713 3.91832 14.998 5.08988 15.455C5.16731 15.4849 5.24957 15.5002 5.33255 15.5004C5.48812 15.5006 5.63888 15.4464 5.75872 15.3472C5.87855 15.248 5.95992 15.11 5.98872 14.9571C6.01753 14.8042 5.99196 14.6461 5.91644 14.5101C5.84092 14.3741 5.72021 14.2687 5.57522 14.2124C4.58057 13.8277 3.6927 13.2101 2.98614 12.4114C2.27958 11.6126 1.77496 10.656 1.51462 9.62182C1.25429 8.58766 1.24585 7.50614 1.49 6.46805C1.73415 5.42995 2.22378 4.46558 2.91778 3.65587C3.61178 2.84617 4.4899 2.21477 5.47842 1.81467C6.46695 1.41458 7.53703 1.25746 8.59884 1.35652C9.66065 1.45558 10.6832 1.80791 11.5807 2.38395C12.4781 2.95999 13.2243 3.74292 13.7566 4.66702H11.9992C11.8224 4.66702 11.6528 4.73726 11.5278 4.86229C11.4028 4.98731 11.3326 5.15688 11.3326 5.33369C11.3326 5.5105 11.4028 5.68007 11.5278 5.80509C11.6528 5.93012 11.8224 6.00036 11.9992 6.00036H13.9992C14.5297 6.00036 15.0384 5.78964 15.4134 5.41457C15.7885 5.0395 15.9992 4.53079 15.9992 4.00036V2.00036C15.9992 1.82355 15.929 1.65398 15.804 1.52895C15.6789 1.40393 15.5094 1.33369 15.3326 1.33369Z" fill="black" fill-opacity="0.26"/>
</g>
<defs>
<clipPath id="clip0_45_4207">
<rect width="16" height="16" fill="white"/>
</clipPath>
</defs>
</svg>
