<svg width="21" height="22" viewBox="0 0 21 22" fill="none" xmlns="http://www.w3.org/2000/svg">
<path d="M8.75 18.875C8.75 19.8594 9.07638 20.7685 9.62763 21.5H0V17.125C0 14.7126 1.96263 12.75 4.375 12.75H8.75V18.875ZM7 11C9.89538 11 12.25 8.64538 12.25 5.75C12.25 2.85462 9.89538 0.5 7 0.5C4.10462 0.5 1.75 2.85462 1.75 5.75C1.75 8.64538 4.10462 11 7 11ZM21 12.75V18.875C21 20.3223 19.8223 21.5 18.375 21.5H13.125C11.6777 21.5 10.5 20.3223 10.5 18.875V12.75H12.25V11.875C12.25 9.94475 13.8197 8.375 15.75 8.375C17.3784 8.375 18.7495 9.49238 19.1389 11H17.2638C16.961 10.4776 16.3958 10.125 15.7491 10.125C14.784 10.125 13.9991 10.9099 13.9991 11.875V12.75H21ZM16.625 16.25H14.875V18H16.625V16.25Z" fill="#99B2C6"/>
</svg>
