<svg width="5" height="17" viewBox="0 0 5 17" fill="none" xmlns="http://www.w3.org/2000/svg">
<path fill-rule="evenodd" clip-rule="evenodd" d="M2.03017 4.02487C0.925574 4.02349 0.0312908 3.12695 0.0326672 2.02238C0.0340436 0.91781 0.930559 0.0234961 2.03516 0.0248726C3.13976 0.026249 4.03404 0.922794 4.03266 2.02736C4.03129 3.13193 3.13477 4.02625 2.03017 4.02487ZM2.0227 10.0249C0.918098 10.0235 0.0238143 9.12697 0.0251907 8.02237C0.0265671 6.91778 0.923082 6.02349 2.02768 6.02487C3.13228 6.02624 4.02656 6.92276 4.02519 8.02736C4.02381 9.13196 3.1273 10.0262 2.0227 10.0249ZM2.01522 16.0249C0.910621 16.0235 0.0163378 15.127 0.0177142 14.0224C0.0190906 12.9178 0.915606 12.0235 2.0202 12.0249C3.1248 12.0262 4.01909 12.9228 4.01771 14.0274C4.01633 15.132 3.11982 16.0262 2.01522 16.0249Z" fill="black"/>
</svg>
